<mxfile host="app.diagrams.net" agent="Mozilla/5.0 (Windows NT 10.0; Win64; x64) AppleWebKit/537.36 (KHTML, like Gecko) Chrome/131.0.0.0 Safari/537.36" version="26.0.2">
  <diagram name="페이지-1" id="1xP1ai-Y3WURJ4K2AAWZ">
    <mxGraphModel dx="894" dy="1113" grid="1" gridSize="10" guides="1" tooltips="1" connect="1" arrows="1" fold="1" page="1" pageScale="1" pageWidth="827" pageHeight="1169" math="0" shadow="0">
      <root>
        <mxCell id="0" />
        <mxCell id="1" parent="0" />
        <mxCell id="1wy1hQolOM4I4YxT3BYF-3" value="git push&lt;div&gt;&lt;br&gt;&lt;/div&gt;" style="edgeStyle=orthogonalEdgeStyle;rounded=0;orthogonalLoop=1;jettySize=auto;html=1;exitX=0.5;exitY=1;exitDx=0;exitDy=0;exitPerimeter=0;" edge="1" parent="1" source="1wy1hQolOM4I4YxT3BYF-1" target="1wy1hQolOM4I4YxT3BYF-2">
          <mxGeometry relative="1" as="geometry" />
        </mxCell>
        <mxCell id="1wy1hQolOM4I4YxT3BYF-1" value="" style="verticalLabelPosition=bottom;html=1;verticalAlign=top;align=center;strokeColor=none;fillColor=#00BEF2;shape=mxgraph.azure.git_repository;" vertex="1" parent="1">
          <mxGeometry x="470" y="490" width="50" height="50" as="geometry" />
        </mxCell>
        <mxCell id="1wy1hQolOM4I4YxT3BYF-8" value="CI" style="edgeStyle=orthogonalEdgeStyle;rounded=0;orthogonalLoop=1;jettySize=auto;html=1;" edge="1" parent="1" source="1wy1hQolOM4I4YxT3BYF-2" target="1wy1hQolOM4I4YxT3BYF-7">
          <mxGeometry relative="1" as="geometry" />
        </mxCell>
        <mxCell id="1wy1hQolOM4I4YxT3BYF-2" value="GitHub Action" style="verticalLabelPosition=bottom;html=1;verticalAlign=top;align=center;strokeColor=none;fillColor=#00BEF2;shape=mxgraph.azure.github_code;pointerEvents=1;" vertex="1" parent="1">
          <mxGeometry x="316.71" y="585" width="50" height="50" as="geometry" />
        </mxCell>
        <mxCell id="1wy1hQolOM4I4YxT3BYF-14" style="edgeStyle=orthogonalEdgeStyle;rounded=0;orthogonalLoop=1;jettySize=auto;html=1;" edge="1" parent="1" source="1wy1hQolOM4I4YxT3BYF-4" target="1wy1hQolOM4I4YxT3BYF-11">
          <mxGeometry relative="1" as="geometry" />
        </mxCell>
        <mxCell id="1wy1hQolOM4I4YxT3BYF-4" value="로드 밸런서" style="outlineConnect=0;dashed=0;verticalLabelPosition=bottom;verticalAlign=top;align=center;html=1;shape=mxgraph.aws3.classic_load_balancer;fillColor=#F58536;gradientColor=none;" vertex="1" parent="1">
          <mxGeometry x="140" y="840" width="69" height="72" as="geometry" />
        </mxCell>
        <mxCell id="1wy1hQolOM4I4YxT3BYF-5" value="웹 접속" style="dashed=0;outlineConnect=0;html=1;align=center;labelPosition=center;verticalLabelPosition=bottom;verticalAlign=top;shape=mxgraph.weblogos.chrome" vertex="1" parent="1">
          <mxGeometry x="10" y="839" width="74.8" height="75.4" as="geometry" />
        </mxCell>
        <mxCell id="1wy1hQolOM4I4YxT3BYF-6" style="edgeStyle=orthogonalEdgeStyle;rounded=0;orthogonalLoop=1;jettySize=auto;html=1;entryX=0;entryY=0.5;entryDx=0;entryDy=0;entryPerimeter=0;" edge="1" parent="1" source="1wy1hQolOM4I4YxT3BYF-5" target="1wy1hQolOM4I4YxT3BYF-4">
          <mxGeometry relative="1" as="geometry" />
        </mxCell>
        <mxCell id="1wy1hQolOM4I4YxT3BYF-7" value="Jenkins" style="shape=image;verticalLabelPosition=bottom;labelBackgroundColor=default;verticalAlign=top;aspect=fixed;imageAspect=0;image=data:image/png,iVBORw0KGgoAAAANSUhEUgAAAL8AAAEICAMAAAA5jNVNAAABL1BMVEX////w1rfTODMjHyAzUGEAAAD35M1Jcovc2dhta22BsMTvPToAHR4iHyA0UmT43b3YOTQiGhni394fHyAdGRrRODPl4uEAAAwVHh8WEBIaFRb74L8SHh8jHx8AAA1FbIP/7tbuPTr3PjstP0sRDxX248v29vbu7u4MAAUZFhofFBAWAADFNjHGxcXnzrBcJiXMzMy8qJCKe2tuYlaEg4MvRVMrOUMnLTMxLi9iYGKnlYHYwaWyMy8+Ozy6ubmYl5empaVJQTtuKCebLyyBKymQLStXVVavoZJNSktzZ1p2dXVeVEqIhoc9OjudjHm5NDJHIyNoJyY7IiKsq6wuICFQJCTJuaelmIrbyrZQR0CILCqXLitxk6RFTlZjfoxXa3Z1n7FGVF2Iu9BphZM2NzuwYtrCAAAgAElEQVR4nM1dC1vaWBOuxNPClgAJEUwU6wUFVCjiBRAFbbsUEe3Frlu73Uu73///Dd/MnJN7gESx3Xme3XWVkHfOmftMTp48eUzaUqs3vdEw0e4jJYaj3k01vvWot5wVlbqjfpkxVtZ1w9CIDEPX8VesP+rmfja+SbTVHWqM6YY0hgwd/jrs/jc3YuumD+jkcdgtAh4GN/85FqoJxgLWPZgdg7FE/WcjdpA6KvvAV4p5FPk8/ZvlixXZw8Jp9WfDFtQdMN0vI5fXbz9/3nyKtPn59m3jUgYmNMdnNHb6X9iDM51pbvBynjVun66uPnXQKtDmbeOc5StODhI/Ww96rOwV7nzl96cu7E4uNt9e5JnNgs5+qhB1NSZW0kJULI5FL3h4envB8tYF7OCnoY8PGOmkVmanYheK7HoyesHC2ytrE9jg58hQKUEmR9NZv1fPVXEjKuxiczp6Lki3lyYHulT6CfBHZHM01gLwqpq7gQ1g55/Hod8kSgPxn5CFz/uCA43FfzT6M1Jbg/Vvcmo8njtrMxD8twHoAetcMG1urn6+4+ojsx9rSOstRujbVUSvqgcgSWzfKzpjkVuUXn0rFPlHmqFSGw2+hujjgL5+dlWWKvlbN/rN9DTwnINaq8gZ6P4o+Gck+Oy0y9GP+rImscvNe4DnHFzmfyQDpQGJTrlHklMftfsGiO/vzsWfKjZuWrrI/zgRqpLNZP04oo/32omBAYGaU3Yioncy8PhK3GNk7nokOt1EAuEXr5yKGxm9k4HHzs2GCF9vVWHx4/FRO5FoA/y7+4uOxcAlKbGmP64nTiD8cl9F2akmkFpSfv+Bi0+UviJPZlw9JvwDhM+GJDs3bYTf14oO+PdcfKIaz270xOPBvyH4BwS/R/ATcvFyNvDn0h3uidnZY8HPOeCPOPxT/WoGsiMYOBYMPFYodKrh9jrht/Xi5ozgw/es7nMdlh4HPkqPMXAKT0Jitt1/KHqkFoVC5dGj4NdAv8pxW3XB9pQbM4X/9DN7PC/QZahbalzNVbGg2W73W1plNsLD4WN+f0sMGP1HwA9+VhtAnnKT0LGmCf9IeSvc91qezUj2CMFvvm3sX168vdQeSYVLsDLl7s1Qs6tUcmsMfCEOq6vhtgVV9xrLWxVdVIeM2TuBLnnesqhSaboOP2mB8NMc++3vjcbbUGH0Jlge5i7AsFnnwyP7BpCuG/2D3oEO1idA+CmxfXpdZMViMc+uQzDwdPWtB75U7s0UvWpYJSqdDXqQM0IExCSdmx/X8hP8t/miuZCN6Qw8Xb3SKsV8fqVoVbXkmfqAulUe1PWDeo5iTzU30DSuAF74Ty8dy8k60/E/ZWz/uNPZu75kFt8zzATiJhyDjTBrgXQde0MDSBp90oPbIfJZWNNiRcvvTcW/OdfqLOE2pZdqDVEc1WdYkzPE6rN+ndDHb0btNuRdgP+zR3oQfgERaEV2td9o7J+zqfBdlK6JZNiYGfyhsDki56oC+AQPnQm/ayUBP8XxK63j2lKaKBp+yGSu2UxdQE4UmMpYbVCrQxE7cPy33uVfvQDh0fLH0XHbDFAcWj6bEX6+/LJOKWPPQm/id9366VMMACpS5/7okYHrldnFEFsipAL4aj3hJJIft+t6ugoRpFaoPQQ9MnAHGsdmg/+GSyMGbtW2D78b/iYtf/6h8OfmMBWbkQL0DQoIcz74aH/yHvyr+xWJ7T1IeIhwA8o3M8HPl78aj9c98AG/dr7kvu9qUarsLwVjikLp46KkD2cBv07lKsi61KEHfuJKrlx4lhryj/zD0QPVmKSdzgL/GQY+ek+1ci6bWlLRG53VmO9X96OlK202CnygC+Pjg5+QJV9skG7NZvnn0o3KbLJIUt+yqp758RuSPzaozUB5CT8owEyq0RoXf9WHPtH2qy/eOBDO9BjOvPxahKt7+dl4YCr1t3Ne20nmpxgitueoLsJuS/p6n38SPIA+gzIKeV99mDvzr/8Ao5yQqBoBOxX8ybdMeD82kyS4RPhHuZEf///CpCZIkN7+HvhRv59GB843NV0BsX04fm4+Rzk//AQECuGS86cY1Xk9BW6KjymqYHELloZASn8wfKqXA37VL/4JTbsLk5tzYn5TBfg9+kN1CylPHiR9NwMHkOCxpz4KsP4Jw+d9x8NfvfQXItLXK26toJ1abRQr9NdLcAAP7MX0RdFBH/liH+wbhXG1ZnnxllV863+cZzX/Z28ZmYX0ReWhRaBTc6JKPwjCD5n5VPxpE/9qgLHt5N2/E59saRribxQfWAS6sgbC9GEA/n6YyoK1/qu/55k3KUvn3amCqOVdF3FjET9k3A+FL2fRfyUC5B/whzCfdnejohU9DKT3K8ULhwaISliNYtj0dVF6CANceLKLvwEDWj8XKD9hzL/FwHHey0D6eCXIhSxdVECuOP57N8MGHH4y9noZ8J+Whon+aUuSWqd9W3/DyA/hpCIuGHTZy3Fe0s4tlqjYUuvsNVpYtMMAjhi4VxbWLgv46++S+FN8oGvU3ZQ140rshRFCf51cQERWOXdvAMj4imnE0sf7rQpNicJtQK728qLqdI8olLsthP98gfCXHeORsjHg/jdM+FarmSWs9NKV7BWXGrPro2mpqJnjrZUWsLtiVkIj5/FnBF9OLqw/f76blHyktRD//yqX0+3nJSveNY47nVrn+LwieROe9EVR0q7S4mez+Czn7+D/ET/f8qhuoCrg7wL89TeL5poUaQa4YjEw0Famrz+T5Aq2AcTcLfOEbDUQkmKD26AOwwa8XMlLFNaC/MgfF/ndIsEX9cLkO4BvLX+F3f1++/nz57e8NK6dkgJPN0DMNfFc9O5YGittouCS7lzCAkmQKtD/Av7lk5fEgB6pFMcHUZOvEf7aMr8/uzPHCldvi/gro40KMDWASF87B4tX7vwfONdAXsSugPmZWzK/kvBnPmbp9hEymTZZzuQbhL+O1hOvdwxXrVKPVr7C2YEQCrDXYsViBQiEKEjfsdJWuQr4A8e/IGWjGSGuu4svEf7zdcG+azCPN6sM8sDT4OOado4b+5eX+43jWhC36WtUgYCaF+hv8iST2U2SBITVYZVbzsJzokzSXv3VzdtbLkSr5zh72A4ZQQjHNLYRsHSJdunaxwDifxeLZV4TBiNkLkbCLyczHP8JXlvhAzIXaH6u9laf8hq51h9CAh82AZ5IBU3yF03R/id3Y8DAG5LhcJHQkPxu8oSk5/n6F7wUeyyw5nw0hO2n0xAMy5J8eqqF8mDTieZ+vNEpxg/JhRgy8D4b1o1RsVNafsXhP1//AFdWaLzqdyY6omgClzC2lWXcmlngT+/BbeWi2zVg/JaMES0sogqEmaox8IPZT88FraH65rFHvcr2OzwglFZgzU3f7oln7ktLjTzFDC78jaKczRD+zAmPYaYa0QMuPQsCfibzCfAzjIBvL5Zw0YssL5MP5U6syELX1aYwgMOH7sVINyrZjxx/LPNqMYwE8Tbv8hchPWsLGQhAeIsaIuB0QYbEtFOQQeiXWgxCgqtGoEW8F2HT0uWdIbnJvhT4Y5kCqoA2ZTTxCm1P9qMFP0b4L0WLvcYqkCylO0yG9LSz1+nMPaDF6KNaRXMzAI558ZWFn0vQ5GSGN7pM6VnDy0B+uPXcxGybgsel/UrIsls06qBKFc8tJU5r0uIbE78lQZMKKlx63ojlzwjLpd0J/HsrvATVYWHzrkiEG+tSYiYtv7bwx2JZNC2TWkojVF55cc2GH8u8BLGTV/mIw16+SD5y6XIWWuufzKJAQrK+u0PhjwVfuOHxLY0Sc3quNe45MPgn+4P42ZVZ2X64/HinPoiBAizxionfdL8WA+TFxje1qcuefb9uCT8xvSzRjNImwRb2LX384P7upn/kjLeM7GzyuigvO8QnFuOJ+LixGp60JHcd0iOuKTZW6V7pvGmfH252/ENbczyb11rmPS5s8y8W88PihDguQcv/0ik9eM0ydwCEfz8oSr8/ft/6YyBqZURL51r2gwt/bHfCBojljzmlx1RgiN/oXnuFWeFH8fF/l7MYMTeXlxe/uPFzGxq8AST9ix/WXdIDl/wBCqBfrBL+9EyCNRTt2yDtnbuoSHLLTAPQ/Lx2448tUCoTFEWUXMu/4LwE6xfTn+KKhL/Y8Mt+rbEC8K0uDUXPu2743BxC5u3HP3Iuv+sSLH/CBswSf4d5+zbp2gXO7RXlPXP5QX095sexAX4f4Iwc3Er/mmcwM4x0LEdu0lKH0FdYw7Zs4Auyv/nwcw3wT/ZR5JP9zb/8cAnm/9rVLAVob8WRdqbTe/QQqsbunAkYpGSO6MciYYK8+PG5BEiW/csP+H/FDXCV6R9KgK3SEbN9e40KVvS0/JUlOrgJKP7O6MElzr6SNMX9WWndq7z2BkjMVR+ABOwBIVC6CDnQZeO6cXHHk9IKO3eg71xQ8C+SXw8YiqO9eQCNmCz/sR6w/Hbg1LAZWDrOs9b9VZo6Q5UizrZiuXMlf9Gxim6oySBc6bzk8b4mmk+0mmqA9q4FLj/6MAq985ci2UqncVacrT5AJSrFSkWrAAsrWO50aO1cg+Wxp7qXl+zkxQXmC2mwKxOmcrMIHYKuifESXiXfQKld2sPpYHzmK9KauwxYZ//y7u5yv3G9V3OUtdJz18UieWAspfu8Fyeuwa7GPIU+QnuDLsnsLmd56YQVz8+L+LSxVtmM9MRIunHsYiGgIgfoK0Ve3QANkQLFP2ZpcN0jPnIyyPiY17wTDABwapFoxc9BAfwEqrGVi+PauCIiGqILrsrnovSffT8GCzkkpwsg8VnkJavAS3AHPpldDKL856D4N4AozqfgdY9V8ky6bBzvdazVF+x09q73i7wvwotYaH28wZtF3AeXbfxDW3wCtFcwEPuQzNrw+VM7033yph0n01C2jA8pMLZSuLq7vNwHurzcS8/Z57rIvIiIgSiWboOhvPQIUHma+PDLTt4nF0UvhYlGebjlN2Vkb8V+uELTKpzyjXTNetZByxN8rBxmC+OwCAGyqrnkvHjoNnb56brMyYflJK9ihH04imfOaT6nlK7tOw49EVS5sPEXWzyCSLfkwOBBEDVE7ZZYD9d/mdL2CcvPOci8owiWCtKhFACZTB8zkZUsdfZZ0c1CZV/glzF844SN32RA8GDCoETe6mfQfCR3XpPh07VkfvNvw+NPU1/xTjjvdO34znWMEeCfY2COV9iFGb7h6LMsjV9L7sKsowrIeX2cKj4mIf6ieOjRjTWoqEKfgQ2wB/3A4oC5aTGWX8nj81WX6TSrnDudMHYDJoiPKESYlSyq+C9+CSE+nHmMP7TzVb8CpBsBVZVN4hGMp6s7gWaz09nbOwbaE87M+uPSXUXyp14uDNgTNbsBJP7ceoaAH8t8yI5R4PRxUC+A/2qpkQ+YlQjuiWEvwy48B2J46VCAtiX+ocSHEnre0vAKUGfCo3bp8wr8NUwSt4S9wQnaG7MUgHdUqezzKaz4iPipchGgAEsF34CVTTUm51t70znAIZUpyw+uyPYAJTt4CAVfxE/FIAW4zksTcIGVWdEae3NTHqgC0yRPlP6Y8AC8EkrBzzKOCoQSHyuhvw3wYDVWvBybZi7hY1UyhA93GAJ1aqb012q1jq341BhcnmR8CAMlMbqtvruhxQcuxigiUIAgr8pPUIE78VAhZC3iODsmyMaPtlPOToXwwVJgHrytRcHPe8KBIZAsT1CBubu8N3rg0ZSjB46d7DGJix8ChnBYeZAXw4tPTOyecMGe55b3mFwZX1tPN/zxj1x0JNYkY9lPU1eSKzA9nmQVftamXeS4Omm7MDdCADCpI5yG+AeCBw073zLmvyus0LA3jNrY0vKv0yWBjCAmwdz8YMsrrPjERCFexHAeAQI7HzRKYv8dg4e7FmTu0vnlBaW/jr9i/2Wy6zWJDFBbBM9UOYmAn1KgQA0Gc1KU842JtS6wOktIPudL0jM273WvIEUxLWE+kyegvqHFPybKkMFJAJ7Bwo7vU6zj0jMldDMB8CT+yZMb03yGV1+83GwrBWwAwmD3maqpmdYpOdX+iFYS23rSI/OZiSY+wgGOycLwEJn77EDLnJOTJ0c/hJ+nUSVe90fzHwk/z2LGbAD40PswcG6bVnnqDvCiMos/GRoid48En4vf2DQYp2HYZCX2ULrWIviKIhj4YzIDIoipU/Qsy+uRxD/zThSDKvvBGwCWZEXKX4aHv3TMTxBUjua3hQ5MVmLuwCCF7Gs8eYzgfWNvrEpQYBTHGchb1YQQiy8OHFCaz56lBAPLkzMYKqOXu09OZd5zDx38ZF5n7UqcLI0rBCEDWqijQ9LpaxFVbG88A3ohGFj8uDAtBYYAoiXCh5D4Mycfk855YH2cBJESyyvnnSlakE4fS+LAje3UM6IXXAekbHZ3PCoyIOWzJ/TBlyHxZ3ZfmqJTUJQC/jc/xgbRGQgabMHFpAktQN/Ki/VQXjx75mFggh3lAVDvSUHgD4M+Ywl+YVueT/G7sP1xpbh0p0VNxYtxe5CuXUsrwugXsoeHKS8DE+yoiV+sfwj1zbyWxCi3st1M2YJabN2uBjIA4Q3Gy3KFXfrzXqwC7bOiLYuyoijb8z4GxhWho+LPvHsvFl/ZPhI7LRjQ2OXt6qqHgaUaFnf29i4RYSWvQZQs4jX6b+d4P7/iOUscVeDQYqDAf5MMbCL55GdK8J9ZeCXQFyz0z2xbp7HW9e3TVUcjaO+crRQhTyxKAkcxv4Klf6Dj68Zd0VsFtRhIeXZgnB018bc4/snOAry1sJnbTRs9kOltMItimJfzrJxU10f4FMbKChYNHZGC+UN2cZEWSDa//4UkOFj2d+Fjtv0R9n+yr/hoCr6ceuamI3ETVtYk/pQIpiWNojSdqJXxiX/xYlJ69eY3tMyKrcVNk4GgHXgn8A+4/51Q7F34YAn+/DMf8Zuw+JmE74qgV0VUsAsnZZeTyeXFrAuxxZYGnCoXx50OnnIC6F8trANhVlQ4mp83t2DDjCX8Siz8782TNqbv0nj8mdeLpugcvfDDh21GAcepzFz17CDRb+mMDoXOZk9iCyevpKTV+JPkq0aFreTzeZY/bxx3sBGLUU82+TIjht0hKCtIqfl5cwuEfgWUs6z4h8ef62MX/6Vwt0rBKzqEHm5WKHhO7CxBTiQnEROsaeyPj0khfXLleKmDGtyZW0JVRw8N0pF9t25Oiz+HmymH8zYDQov9GZmIP6t8ciA5xvzAp8Tq8dAkAD1QE2xdeeB4LwrkpGIWARd1PfZlkUugnL/rLNlGCoO2bPLVc/OTa2vrkJYqG/SlLhPtL4da8b/IvwLRxz6Yiy8FiM6LeUGpDdh1ozyK50qcB8iJzMc3BAsnwnmAq9ibo8R9qfMJC4WLfPHXMpnYwsJC7A8QoCO+KmILyMv7B4FE/pUz898A9Jk/spbkj1t6wcD8EW6BMaqrKvJwpfF6tpOF3d84B5UV1tq/aDQuQPRh8df4zILpPdGqNMVXCwbk4PV/JfJfXr71xUmA/pNpNBWf5LvQ070O0Q7RGfp0qp3oZprEOTAjVzRQlQqa7ZhnWDOWgY80rS+nTd9QpIBJDqv+IOo/3pkliHWE5GNOMQW9zYFRZldDUCksiK3FBCyQiwzysP6H2T8G2wo/yVlzTt++78esJNtfjwt3qATgs+s/ovzv/vvCezvQ9Nr8FwHgBQdZlFUNT3Vc/tUbkS9k1p6vQwCL/ePkh5N3X2B3rVFrGxY2hhzLk+Ie0t+Kpw4YzSGyAP2wZh0U+cX0pXftAQ93sJ/gueMCavT68wUwRrvr62v4VNriq4V37zIu+QG1LLju8aJZkORFn33h4Q/OcLTIgTk/IB638ivuZPRODgLwxzLcFL1eTlKtHqEugot+/yrmwA9m0Y1/HpbfO0Zs1Z/PcPaH2nfO8DljTjm4ZWc6epMDXlD14QdvtnbyIUnVJg4B/BL80ik/2Bx03YfE35fFCPNftfovTgMkHph1G/2xYh/EAcm/F//zkw+LXPx3MVzBEqSYWHPgArcqu0wzmB856f0q03xi/6XrM0Acv8vuhFp6655HhSD8mbXMu1/fAwPLr1FgEGpyjRyXG3/Thb8Z2IzkD9XSFGjOb4AIfzOi4DhoQ0H76b0pWCAQFhB7jgeHMJIZr93+w4tfDm4nUfl/4Bh/cHyEM7f9IrLkmHSoYD/Wf9OFDPiBtWxWygDuD8tSAP43i2b8IEgJ7Ae8M9sv1viJcxNJuBQzFX0WGX9KmVBRyiQhtv7tN0roUH7cf3yZpfjTsRQBwY+pvnwAhSI494M+ZD+Vewk/4W8WkpPwg+fNyrJhSLL86o93OFVk7gOYPsX1TUeFoHaYaJ/mHNN7zgibH/hghT3R8R8pyYUx/UCxOJDxJ/pMkxchS/v44cvrk90F5CJIfQOCywx/FIxH63Q+l2tYUVTHmw9QAHBggfgzr5L42jh2epNTc/U+DW5ms4vLwEYy++mjLCsbHvEP6qZy8TdzJj577lQAGjGxNDg6/hSWBIIGkRfeL0t6O96t8gOMcz3rlW2KohRAqiSf+Ad0w4T4mzPoXAFe+wVo494K3MQExoc/sytlJW2g0gHGRGo9wXAPdj59+/tbcweMTcEpPyj+ATVQETybD2HUfR6AzwcVlPsqAHgAiCB8c/gnGJPrdAQwUKnEz2Gut7TWP9+///L9+z/fdrCF4Yif5aDYDaw/tb+tfJVLoRO/sECp+wrQvAIZmG/XxTkIXVp+SjWRlZyh/e/7L0Tfv27jttsMKEFD6L4BYh7COfeJh3DK0b0VACyou3ifib1MQjahYLeKVh8M37D7ZCsXV5n2p8D/yy//IAOmCmDwE+B8Re/UPs+i6xcg/rDt9r0VAEII18JlTiCZ3pa+ft0R78/AcybKOECypTLl2y8WwQ7Y+JuFgNiN5y7OR2C2fAIkHpU0BSi6Aswrsl3UyGTeYW1w52+QkL+3uQThqmlkQrZc+L//T7E1WAmM3fjwmLPi1PYLEA04FZr3xZ+C4OxEgM+8xnRUkb6SlODpyi0Vxf+UtbZogG37bxv/vzvTxSfrFh8hQK4sh9dXTAG6hwIcgQCtoUs9ebWIZmfnT1PCd/AkDRVDd24Acy78sr38ID5BsZt4hO2Jk/gDDM7P7joFaCr+gA1SpOSX179CykKmYOcvU0VJgoy4/Qijyrb/suD/va04vyIodiPn6nmMnIbIXIESD6JNCzQN/5GfI4hcICzI8lR05+t3e4kVPIhCtU6TibPtf62/7djWk8QnIHb76Ht8RLgwdxLwqzMInawAqeb2kf8TZgMF4f/zi4P+hQ3Q46p97+2v5t58U7Ip+1sLQbEbWRbfSSJ06IxLg11B6BT8SqHpEzFcPqlATZSdr074v3xvFaRyTzXrvVVmsffPjjP8UYIegeHa6zsWkQ4pdRkrHkOILGayAkCU1fR/hCoRzUPZIfumjQcVllXQ3m6iisbDxO+ynSQ+/sYFX1bfKRBb4uF3B37qcAgLGgJ/wB6lgDYUh3e1bLwmlc/iIDllFn9yw3Zs2+m4ODD053Yx4AVh/PFrlw+m5poIoifBB4zEZqCQKQW38JsboF3lSujBurj1gkHFFfwrgQ8QLo95ADvHTeiul9UQCgD4yU4FbFIqW1C+eZefbwDrxrda7BQLUDx8A8OadYSeEDr7n6Dic6uBp/qSD3ZtALkAkQRMVOBDhT7lxw9eTNr+6oOPkoLn8ZeeoBE9KH8LUN6UHGh9yJkEHkUW928ApQnydAUA/IfBnwHrs+1ffjRBaMK5FLR3yP1+P1KcqcthkPiI5Q8+jG/g3QAeZ3MFmIZ/PugzZEK1P/8J4OCvbXCh3Ied7vzFt6TgvLQZOIfLpT/4HaN1nwkiWyUUYBL+ed6i8eOn7ray8+0XPwfb9CI0vG+Zuwe38lLdKvj0gbFnIVIhyxlxkAAJDzAJfmoMfioeEwd/+/BDFFSmKG6LzOf3b9vuxDfIefGD7Ma+4jUuzp+x43aKIZrTDZBMQhaov7yfYfg4gDBUa+UojUEN+epSXl729IoP96gTjpDiJ6A46i1kgban42+OwQ8aUBBh0Pa2m4PvfyoSu4E0ssvQfLYUVwR16C17UiQ+8fiZJ+YZHA6nTXWu6Qo8Hr9orXIOYA8ceoA+bAAb0GN/U0zt/kJXMJPJLJz8+uolzXpMPJG+V3bbUAqWuALfEz/nQOyBsfPNtkUYxaEPa5f//Y7S4606m5kXPnL5Prm8vMhDcaM96RhHerbaVhxSAOHBJuE/moCfODClSNn508oEwIRq/ZyqQ3whK+6q55HZdMlkdt98SrqmWIxJxxHzc2Pt4V0SueYD8RMHksWBZIoRZvLVKlPA9ijuj8vcEUHm/JsbPNGkcxzp6FKHBCWtHGaCAk/F75IiUIQ/KeH625C0dq/8DaTHpbzk9tAM/irZwzeSjs8p8WrphKNMeRxtSRAla1yBH4bfJUWSBtbo63fM5I2W8ZdScLXsaPnBCr5ZdqA32AHIfXxIc2nyhLca3Igz4ITyYB1rqgKHwo8cbMhWUqnsKH+36KdWwaW8KfLa8sdFs4tLa98W6aYq0Zu3z8Yz0NcdXowr8Pw4/Bu88DDR/rg4wJzMtKeSeAlmodBM2TS/wSfSZNkGr49sm7NF/XZtPH4uQfIiP/4Na128CBEY3fOYZaz/dSK3AcoFyUXK/OHGUZMIh1hdfwOpH7odFjmpSYf5Vp0qgB64MM4ApZoFpYlbEBj/WIDnDw8PNzaOjghjNpv1Tq02aU8KOIfm5swA8H6gmKoHnSBlET8DdJkiaaqVKmMNKNyzsIH5lxU/25g3EDDkX4IQH0L0YBxPBhsER2q0AZO82ClJZhLjJ4cBCsKPcYoiZwt8i/AXKAlZyUJ8f2LtcWeVYqo+8cVCJXF8OOgwxXzKWAOKgQqtKjigjab0cNQmabpr7bfqNz1LDTBRmX3vMQIAAAi+SURBVHwgel0c3/4uQykDN6AB+FPz1g0JuQeDoevlMgugsq675otNnslH4ct5tau6fcRY/UBiLnZIgFQ/bJv4EdzZ5V1uQA+DDFBq/vDIN0DO146DbvWHo7Obbj2ulra2eMFpa6uUi9e7Z6PEoMzKBvG9vS1nm02Cz1tCbQMDI1N6biT4KnfIQwI0+TDoIWdAXhhrQMHNeFdcNnABy4Nh76aem/biGbV+MzSwW8cLTIo9BavSmwc5frXFDJbwfFd3qgCZbiz7CfFz7fTgP9xWLCqQrWNSoteNh3xhzha+yJPZD42g0zXrOpDIMv5FXaazK1/Cwl3AlFezXRmcARSRgg9/6kVqY+PwkJvLw2bBGHajveNhC5t4DvxUrhZxTRdf/IW5cZcF21D0wdNebbbFXwJAEr7tX3/3TOj22KR6En7VsKd0aM7WLMsycFBY372pBpt5HHqeepz7lmbZiEAH4JwuU/Sob5lB/LkrzZ4ywkFns67ZNuRWzjIw8Wq3W407OaFq+dRXO5UsIxfswFIvLBaiv2myhOvfN+yHplCJzLDmpmwpcGloWd1BzxTR+rQYSNzDfGcKdwAB/gvjhRfARjPyq2IJf8LC/yLlbEuAYrCqqC4OBv328KB3AztgLbiKuEK8G68kXrs8AT+nZpij4f34D3SO/0WKe3JrFxn2B8bLh4rF5jAv59ziQTrPAMZnYKmjQtQXpRH+ka7Mv0ilxFc4IA00vaeODdG2VBqZCXPLLXqJE3fAk/FHfMMM4e/p4mkFkfRakA50s7obfC01rMO9mw2rotwBT8C/oUR92TnhPytb+Hmt1FyFs7LWV8c6KDUenxpDW4TpDHfAEzL4QyWqA7Dwp1z46+ZNtSsRAcXPDhIJCKSqNjtgeVty2PWvh8Mf9UVvhP+GOYrmiN98YTGsr44zHk9Kp46wtX9WEpfmBqHfLs37MlPwzytRHQDh7zJH5Udx2ESIcJg1YgAxK0081YFwyXOAHx8bD/duSGrsKdMqQIWwb2dx4gc1LLjxW26EHMAY+Yjz9Q/5bk4K9ran4c9Kxj3wVx34U+RpzG9hGIGWtoI4wCtzkhRwCHEwMTOAmIS/WYj4pknCX3fi58Nx4s8yODB7SlHNAZWAIA+iwBWFOuxr5ULhBwcwMaEbh19yTfuItLCkqi0ZHFh8HKn41FfYG1r4x8MnBxDtJXUlvowFL/46n0m80vSD8fhzOHEY9tWuegj8aEDPIuEnMVB9+PUeB3iqGcPx+FF8woo/vT5amY4/ogHl+MuSNTJAARA2hePcvmBvQ1COk2oylMNGXeh3+mEKhgHo5PKsEvFVwxy/ZJfOebMY8i6BX746A+qNhon+oKUZRuG0Pepy6Q+Tv9uEyeZU/KlCxFf1Ev5cS7OeluIBHLb01Fy91wKfWQbSdR0fiabCxumQhEutUvYVOl45DYW/GfFVt1time3OEQVAckut9vrWVDr3CRA5HJxVVS5AuZuyHOmFhANSgKMpj941JzVmx+FX+178Ej6GTi9s14nwp0QXoavoB9RctU2VqQhvtKTBGqmw3Tyc7ADKkV5TyvFDAml/h1X5x0fQB4mDXq83QrAHN9U6OovuTS/RYoQmyktpR2IzC8oEDkB6Qxs0B35IIA+9+Bkbdi1RxFKhXrbKpoZ4l2OUW3Wt041FtyKQDqMaIMLfM/FjGYzfpOXeRkn3nCShwe5EyzUcb24tKEfjOFAiGiDCTwlMCivBzSxffu98QGl4RUuPloiK2a2DqG+jVctlaSoHKWVqRTIAPwTQzWaz4Oh6BUlhrt4FRzAa9c5Cl1ddtDVijvNAlEAOIIKOFgGRK4Lk1F3C1iKGgWE5uDl12OQgDiB8iZZCWoGMy9JrEcsA4UkdMVuMyBa5m+ZHhYlNwWD8/F2fss4l1Gg/Gnqis7JjuZTmhnMT0P2HjWiJeJyDgRhrDc/oGIfHkR0nnelODogFR/0jUgShigBI69bBu+Zosu0+yhmRYA9khxgpzSPRxEADGkWBcyLOl3Iikvgx+GkPnC4FeJCaR0cbh4VpPTU3cfwDQ+DHlsSPwU8tQW/7kyx4JAUu8WU38WNLImoN9f5UHbhDXEHl6VdaxPG3DS1neoKIEezDSD1gfhaieOCSCEB1jl/Vo+QkM6HqEOISwylJUQDwAHSol3lWixXBEB2VGVP8DCJyTrgZUUJoEz/jjliFMD1iBDsrKsXr9XgOWyLTXg/rJDMBMPFTSerxQE6lePiWiLhA4K9zBuo/WIF9RC2pCB5MSA2riqKONL2n/qhEqV4ED6byBIx1hQCBAkeLAGdMaMHD9DRNypn4uQHiHvjx4E2lrYgKwPGXyzcCPw6PR0vhZkzYqYygAKKDVxZ1cm6AfqwHcxOGMBFcEO/gla06P9Y5onYBZ0q5SGVVPkFzw/SRwI/6E3kMZKaEleoIMSRfdKtPgQ5g4tMVj06jaDEYX3QjQfjVHOIPeDDzB1I9mgSotOhGm/oUXTwIM1IA9QjEIuUAFDgzbXDTG7V1Hoz/VPvDD/IIX9ku8QKKVi7rYpRei5IAPQJFM4E0AtdyjMAaEar6j0JbkUKIrbgYxOBrr7P+D8t/xxGNhYRGwRNgjp21Rj958ZGoihC6D6OKqE0b9MYMev5owmGP8EGwSgHoTw773XQavozGCxD4vNN/CP9Z2CCSzz/wqOGnRm1uyoULYkz0vAL9k72ui1CAdGcH0U9bORO8ClHP6U9OGz1EhXzs4BrDm6Bm1VZJIFdzufrZsIWV1AhB96PTltUgwLat1HY/ilHCUn9OjVe7vYO+wcq8ORqlbPTo1DYcBUX+RAnwcdpPDIcJoHZ/0DKoF20XHiOOPj0uVd0tOcGHZhi6biDx90+7qr7/IfUF6jOmBz6XFEz6pIdJfwptdYeStzIdSDTWc/DfiBw8VKr2eGWaJpBwBEmT8V8kR+ZAxmmi91+SfD+V4lVIrg6G7X5/MDgd4KMUieFBr4cPtc1m2f8PzeMX9e37Yp0AAAAASUVORK5CYII=;" vertex="1" parent="1">
          <mxGeometry x="470" y="635" width="43.41" height="60" as="geometry" />
        </mxCell>
        <mxCell id="1wy1hQolOM4I4YxT3BYF-9" value="Host PC&lt;br&gt;&lt;div&gt;&lt;br&gt;&lt;/div&gt;&lt;div&gt;&lt;br&gt;&lt;/div&gt;&lt;div&gt;&lt;br&gt;&lt;/div&gt;&lt;div&gt;&lt;br&gt;&lt;/div&gt;&lt;div&gt;&lt;br&gt;&lt;/div&gt;&lt;div&gt;&lt;br&gt;&lt;/div&gt;&lt;div&gt;&lt;br&gt;&lt;/div&gt;&lt;div&gt;&lt;br&gt;&lt;/div&gt;&lt;div&gt;&lt;br&gt;&lt;/div&gt;&lt;div&gt;&lt;br&gt;&lt;/div&gt;&lt;div&gt;&lt;br&gt;&lt;/div&gt;&lt;div&gt;&lt;br&gt;&lt;/div&gt;&lt;div&gt;&lt;br&gt;&lt;/div&gt;&lt;div&gt;&lt;br&gt;&lt;/div&gt;&lt;div&gt;&lt;br&gt;&lt;/div&gt;&lt;div&gt;&lt;br&gt;&lt;/div&gt;&lt;div&gt;&lt;br&gt;&lt;/div&gt;&lt;div&gt;&lt;br&gt;&lt;/div&gt;&lt;div&gt;&lt;br&gt;&lt;/div&gt;&lt;div&gt;&lt;br&gt;&lt;/div&gt;&lt;div&gt;&lt;br&gt;&lt;/div&gt;&lt;div&gt;&lt;br&gt;&lt;/div&gt;" style="rounded=1;whiteSpace=wrap;html=1;" vertex="1" parent="1">
          <mxGeometry x="272" y="780" width="570" height="350" as="geometry" />
        </mxCell>
        <mxCell id="1wy1hQolOM4I4YxT3BYF-10" value="cd" style="edgeStyle=orthogonalEdgeStyle;rounded=0;orthogonalLoop=1;jettySize=auto;html=1;entryX=0.548;entryY=-0.004;entryDx=0;entryDy=0;entryPerimeter=0;" edge="1" parent="1" source="1wy1hQolOM4I4YxT3BYF-7" target="1wy1hQolOM4I4YxT3BYF-9">
          <mxGeometry relative="1" as="geometry" />
        </mxCell>
        <mxCell id="1wy1hQolOM4I4YxT3BYF-12" value="" style="rounded=1;whiteSpace=wrap;html=1;direction=south;" vertex="1" parent="1">
          <mxGeometry x="290.01" y="820.01" width="530" height="290" as="geometry" />
        </mxCell>
        <mxCell id="1wy1hQolOM4I4YxT3BYF-11" value="" style="shape=image;verticalLabelPosition=bottom;labelBackgroundColor=default;verticalAlign=top;aspect=fixed;imageAspect=0;image=data:image/png,iVBORw0KGgoAAAANSUhEUgAAAP8AAADFCAMAAACsN9QzAAAA/FBMVEXn5+cDm8Y5TVQAi7gkuOvU1NQAqtq/2+Du7e0jvfE0b4UJlb3r6urv7u4ySE87RkrZ29sqQko7QkQjPUa1urudpKYqQUh3goaJkZQ8Pj8xQkmAiY0iuOIArNMSmrslsNgoo8c2Xmovg501aHgGhrAbjqwnd401UlpEVl0KpMkAtN5WZmzHysszVmAwfpUqcIPU7fFlcneQmJuora8fw/BQYGZseH0po868wMExfJgci64maYOTrLEslrYoqNUaN0AaeJoczf0whaUKMDosYXW03+rh+Ppvvtmpu769z9FTs9NYe4aHnKF1jJLI5eqc0+NytMwAhLWQxddOiZ7TLP9kAAAPfUlEQVR4nO1d+2PaOBImSkgFyJIVgU2BQAjlVUwSIBCShqSbZrfdu233bu///19ODz9kMM2jCY9WX38oYSxb38xIM5IlkUoZGBgYGBgYGBgYGBgYGBgYGBgYGBgYGBgYGBgYGBgYGBg8F/Yc1l2fVeMWx8AKaN01Wi0YIBoALcB112i1YOSoFqHu/Hr8K8eVk8rx0WxWOz6vl35B/o1KvZatHh8f8Q+/Iv+s4W/4G/6Gv+Fv+P+M/NFyBPxPf2L+yMsvByWV8xC/PY4/2q4xEiwz6kSgVP8LgHojwqPGP1axvFUagEUM2hoAiP2hof0Y/nDE6CC1RQqAxVLjMEL17Szy+PMT0tVkjxj/IY8Cgjv29ihA8K+eHjcb1X63321V3x41j7K1eqVxxPu844Nuo1uvNpqtk2bjUfzHuJ4jGKe3RgFx/qcR/+5JnH+9+zB/lGfkJnNBMNgaD3i8/R/BHw5wNrOXuSF4/Evytxm52Nvby1wcUNdaTf1/FC/JH41oe08gc0VYfjs84CX5w3KJu79UQBaDFRH4Qbwo/0HpTvHf2yNbMln8ovw7JOfzz9yR7XCAGP9qFP/qR0H86wv+rcfEP0Rl96cAnE3tARDUYHH+3Vaz2ao2DnnM5/xnhye1bOW01mx2Of9WV4iPj6unIv+x9KKLN+bRP6CfyZYmm9kAkFcuauhhPf+dzeW/VT3/xQO9YHnhdSBimv15GijG1kpVm+QJaMRwKQIG4CACAWTpXwCU9HJsIcmFmOyE/PcJs+1poVgul4uFvG1tjA5QnoKWBtI/iZAlDU1UJy1N1taLnQK6yL9DrjKhAtqgwxxfWQ7rDNPWZmgA5R3wvnrYPex2D6uH1fdvT88rlfPKeY3/q9TeNg+FSIlbBxXxfUVc8P63ejv4XvwjCfwnpcuIfx8QAvqN1uVlts4/UjZJb0SHIPkT3qmfnFbBIXn/Nls7bc4ah+1Ku9bi/E9kLKhXT1tNzr9R6dcaMx4LeEhoH7arp83jUy5uJ/IfluoRf9C/zO0H2LnrE0yLayE8B8kfKCLtQyD4t2azbK3PmZ5w/sczxZ/HfM5fn/9sH/ZVsXq3n8QfTRnZjzrA/TiuAO5tQgt4Pf4pBLQOYI7+fo6w6U/OHxb9AVAC/f02HmxO+38l+9uU+COABfqNpALrwCvyFw5AbjJJ9LOEjTbC/K/KHyEAwE0C/XvChhsyI/Jq/Hmumx9jAi4y8+yvwObQj+K/5B/G/5qI/4L/ieI/a0Xxf55/Qvzn5O1Cx8GktZeZM/8VD/04v2b62ohP8D/pNqtVPsA7POH5X6V6WJtVmufNyhHnX+2K74+7zVmX85+dzyqz2tHR+9k5538cFDvm/O1gNGjBlD0d9phDSFa0/oj6Re7unvDEx7XX3fbdcogBBk0NpH5UDXB0TFqaqEGamqzfjhXD4S0nPZHpk4P2Zdj3tYh8f0QIKTmgnF6376P0rTbmi61qXBjxLZfFRdpokJAD0Li72MuEkQ8AR7xJZKBXnKbWP/BBUwdkXw2Xd7mbvUxGy3uuCMjn81PPTm3G2J/3eX1ZMV7N10CY9Pttv45dS64g2BCgkVNX/F8ZYarvbQx3gVXxD7Id3Ft3j+fDt8LT+GeeIdHp7xw4+kgPrW3fAHT997Dz/L/HI7N/tUS8XBKjz80/1sxvDdfXFgDwZPCJ88/cZL9j4pv2wV2iWEmWl7y6882vv/yDKfdTfk3Jj1WggLlpHoKg3v/fXBLSuEniwcldZHlkJ/WLBZ6Z/Ush6V/tJapAiEn9KmZ+hKxUAWAwXseCGARTZcpHY5j2Cl6Kx3/J/+biri5yF0Cyuf0ocqkgdpO77BO12IdTuQnE8v+dLFEiAhpXF3uZeNm9i0sg79rOXl0R6vHM2LJSdr6MZRXG3mpTIPHaIT3kmpfAlIEO4PlPoy4y0mA9EyH97N1VbmfnYmdndnWXrbdJJAzEOxy5u8s60CRqXvdSlL0QZe8uG7HbAjCZlF2eFFMnrMEgn1rhGwBv5OJPt0wHEKlsPIMVue3bAAv5rZSHwkVRVDYu5WzZrYT++NtPt73hdFWBIJ2e37lmd8jHdwK5V8A7HYAWFx6uwGu1Iv6LsCalD7sSOy+OXR113NnE5X9wSPuvwz8Xo/9hQya558EHgETVMPey9GPsd98RWt6QzHcemHx8eQeIG393t43H6+a5BNYE3784/zn2u/c89G+i96fUW+/dBxVwdPQE9vPGF41/Q+b4k/BwAzj69ubN7882/u7HzW38HJaL+w84wNng0/Ufj1TAAnve923G+90lQB4LHGCJAj5/YfjrlzePaQILrs/p83R7EyN/CGsQOkByDPx87QD86c/ac9hz+oBu9qLvBx3g6AxTp3f2IP0E9rvv2gnrgTYMPAS2d7+ngM/frq/P/vUM9tL63uZ2/Qri7fyHoMZzTSB3Wb/jHvD588V3ySd5vmr7eOPp80FAgYYtIPSAXO7qssGH/geNBx1/CXse+DDYjLVdDwAOMOjX7+/vPwhkG/f1vpgRKZVY5993D7FfQl6kPduy4wnZOL6I02EM9CZ/fXlz9kC3t8z0uzLp3ZodbzwG8BB/HeDLn5z42R9nAp+fRX73IwCsuDkvuh6C2J94zdPcAN/OQjzV7QPfp+te2vAkWAXG/tIUwFXg6+Dvpxle4F2b0PHalzY8DVaROV9jCpA6+Hb2hx75cw9RF+zvCWbDjXi//RRwDyj13iThEZx11wfA6a19ZcczYI0oBl/mXYDj9yew/8hdH4y2zvgSlgew8zXBAf757+PZYzpMbVfLj4DsAXM6CS7wz2PIv/sAOPuyvYWuHwKOMKWDRQ38/bDp69x5aNFe/6KmHwK0XUadBA3kvtcGPt5z07NOwd7Ohh+D5Q24BsbXb+ZU8J8lCngnyVM2maJtbfdxIMubiMM/Btd/ftN18PuiC3DufIiIHTYYbcBqvhcDsuxhh1KHdb5ef5FpkEqG/slpzD/c94ngToGb/5nIK0DoFTtULNYUI8Gvf/2lRkb/4+Pj+/u+WBJASo5DO5NRGv105CXEWolReQyYo86+oRylEinhEv/IKBi7hakNre0Z4z0dCEErlc4Xiu6gN+5wjHu9gVsejvKenbIg/Jm5h5CbdS1L9u3IssTi9g1awWpgYPBjQEmHFjwJm7Ga/5lA6Umv+CP1R3bZ3Y5TTRIBOz94hDkcU3w72l4PwADg8g/YT7w9wO72OoDhb/gb/s8v/+vxj+9he4A/2qQdbxI84UHiZ0v8tGWePxeLnzhZcj4RHxPaac9LozBpivGfKyVG0dPpNL0kQ0JLjox6TSDoFcdy9T2ejMRcfZw/TI0mWIrHRW+h1ghNXS6lXNwr+BP9On9Ypp1opTOCU5cyMYlCJ/nF6UFek+EAYDBcpXtYXo/5+y8ApoAnPjp/lBpSGopZbxqvNJyOtcJUZU0Rf5QaUIBxeLX+KAeM4s0AwXyHYSG/XeGRaKgYVknC6aVBxB96HapLMSvrO/ZSLoud/cuGoljIn9MX96a2f3V57lFjfSmYeNniC+hwVS1AGkgSE1CfQMTfyvs1DqWADrQaj2lgeSVW+zkD/j59f7lndDWmwaO01VDQC/ch4dvVrY7uqXrTnlssD3Boa8Uf5pnfKiblout7Oo3OqxurL4BbGA1dwJsJdTX7+7oND7ntqKvpYDgqTIB6VLgYUJyIrMTj3mRlWyOgS5W/2fJ8htQotIHgj9JKOp6KyT0LecrbqX9EhzWR1gUjsWVLFB7ggfR0xd+K07eUL9CC7V8tGxbu+PRtZQdQsNHq5o+RtC/uhEeuwdSERvyhtC8Nl+0ga4ojo/mFo3UdvD/X+3+fsE/fv7oXXY2KNGrqlvRDZ7LaV8WoI7nqi9Kg3Awp+YutAJG1lVR6hDqgCUpFJe1iUvwV/fDm8q6xBWDKf+Txn0o7TnG1r4rRVDx1bgu+bzbOX9pk7jAq6AVFfO0k9VS2Yq63fTSSao3RH1KlQPFZGAKv+ixk6OLFpyKbKv6q9c+vVraKokwR+oUTNzLYYZQLDziXuqTarg+EXEdcIXeCoLTsWFa+7U9ofeF4SksRg9JkeDJP0BZVHaOUBRK0418SBrJQrJQaXYLsnrQ+K4j7o4J41Iq936/UeP6paEolfzgUJlvIxFSrsFFyYXXfIJEI6YtzVXRdwnRHtZGp/AqW8ZKm9KoQplwc6Em/F/xlpRYPbxRfM8V/ySAvsH9UVvlSmNXBqd87+KuhZZ+DV+3+stXhxVTTVv4PRfdMF0pJt+D80zSxcHADQV9r7dLBgzlha6TSqrGt9w6dl+D0FCj+xUX+vv1FP0AXjCJ+CCTkv1hY3kDlMqOoccT4W0OVRk3CaLAe/sr/F1xYZqKCfzGxUcqoHfj/4HvtX/Vt6p55GjQ1hCaq49ca3pr4q5xknj8UtqIFiPz/58RIBfKUFSYvCwjaf6QAFUs7lhhw6R2/jzXxF9scgDM/2JBJIf8WyVRnvoeHsifrQeUHi+FBIIz/EUmZ4HBngmk1wogvBl8Tf9Urj+MWFoeh+KFaVnR+pyrwk3aV/yVWOsp/QgVIp+Kj4ylVHX98F9C6/N9W4xvdFNBT6Z8lzwKQKY5eVZkcqaiIJJOkCChvq0a7oQJUAqQy/qjjD+66Jv6KoaOtTYdpZTcZun07elE3BuWYTaXMvnrcaBIL+fdRAbTAVH5raY9Svq9GQSh66rr4qwyYVygtly0hCEeqhmrMB1WcpoWUqCofl9tqdBxkKirLG3uWWADD6eSLU23+z4orQI01lW8hca+RGzattfH3Z10wneTTtu0V1AyV6N5UvRRf2hl6tp2eltW0FfPPaVLDR4DZoDBNp71hx8G3hcBveMOIK0B1p6Jh5L20l3ep9o54ffb3Taxm8Jg/96GdzTD2U3lGcTANHO3dh4WwMFNn+MTn/wIFqCDhT6ZxdTKm7hWe/rY+/tEMZwgW5WVhtI6AmRa5AgVE0kls/tdXgD/ug1MafxQNOs818hdDMb1adC7gwaGuH+7rsW1M0AO6fnDUb6pkT2X6QRIN7Yl2M8x6QXK9Tv4pZI3G3L0FKAULmzUsu0wdX8wG07m5SYRGnbAwLQdTnQz7rzCs0S2mQXciVlLzdk/VvXqRI3E/wmx9v4QlOuNh0XWLBS/p11og8gpCOswnbWZAVno0dF13OPKiF1qFYXCWHfTcoq1fnZqKq4uj2M9cwII7fDk+T4f/+yvLXssG4kcX1mI7mldp4qMWrjIwMDAwMDAwMDAwMDAwMDAwMDAwMDAwMDAwMDAwMDD4FZH+tfF/jAt5flM7NhoAAAAASUVORK5CYII=;" vertex="1" parent="1">
          <mxGeometry x="281.71" y="820" width="85" height="65.67" as="geometry" />
        </mxCell>
        <mxCell id="1wy1hQolOM4I4YxT3BYF-16" value="DB&lt;div&gt;&lt;br&gt;&lt;/div&gt;&lt;div&gt;&lt;br&gt;&lt;/div&gt;&lt;div&gt;&lt;br&gt;&lt;/div&gt;&lt;div&gt;&lt;br&gt;&lt;/div&gt;&lt;div&gt;&lt;br&gt;&lt;/div&gt;&lt;div&gt;&lt;br&gt;&lt;/div&gt;&lt;div&gt;&lt;br&gt;&lt;/div&gt;&lt;div&gt;&lt;br&gt;&lt;/div&gt;&lt;div&gt;&lt;br&gt;&lt;/div&gt;&lt;div&gt;&lt;br&gt;&lt;/div&gt;&lt;div&gt;&lt;br&gt;&lt;/div&gt;&lt;div&gt;&lt;br&gt;&lt;/div&gt;" style="shape=cylinder3;whiteSpace=wrap;html=1;boundedLbl=1;backgroundOutline=1;size=15;" vertex="1" parent="1">
          <mxGeometry x="620" y="912" width="180" height="185" as="geometry" />
        </mxCell>
        <mxCell id="1wy1hQolOM4I4YxT3BYF-15" value="" style="shape=image;verticalLabelPosition=bottom;labelBackgroundColor=default;verticalAlign=top;aspect=fixed;imageAspect=0;image=data:image/jpeg,/9j/4AAQSkZJRgABAQAAAQABAAD/2wCEAAkGBw8NDQ0ODQ0QDw0ODxAQDw8PDw8ODhAQFRUWFhUVFhUYHSggGB0lHRYVITEhJSorLi4vFyAzODMsNygtLi4BCgoKDg0OGhAQGi0jHyAvLS0tLS0tLS0tLS0tLS0tLS0tLS0tLS0tLS0tLSstLS0tLS0tLS0tLS0tLS0tLS0tLf/AABEIAHYBrAMBIgACEQEDEQH/xAAcAAEAAgMBAQEAAAAAAAAAAAAABwgEBQYBAwL/xABMEAABAwMBBAUGCgcGBAcAAAABAAIDBAUREgYHITETQVFhcRQiNYGRswgyQlJydIKhsbIVIyQzNGJzNlODkqLBFiVk0VSTo6TC0tP/xAAYAQEBAQEBAAAAAAAAAAAAAAAAAgEDBP/EACMRAQEAAgEEAgMBAQAAAAAAAAABAhExAxIhQTJRIkJhE2L/2gAMAwEAAhEDEQA/AJwREQF4XAYyeZwO84zw9hXksjWNc97g1jAXOc4gNa0cSSTyCrlt7vBnrrlFPRyOip6GTNHzGp45yuHXq5YPyTjrK2Y7TllMVj0XPbDbVRXiiZUR4bK3zKiHOTFL1/ZPMHs78roVipdiIiAiIgIiICIiAiIgIiICIiAiIgIiICIiAiIgIiICIiAiIgIiICIiAiIgIiICIiAiIgIiICIiAiIgIiICIuV3lbUfoi2ySsI8pmPQ0wPH9Y4HzyOxoBd6gOtJ5ZbpHe+rbcyvfaaR+Ioz+2vafjv5iEHsHN3fw6iDEi9c4kkuJc4klziSXEniST1leLvJp5sst1vdjNp5rPWsqYsujOG1EOcCaLPEfSHMHqPcSrRWu4RVdPDU07w+GZgexw6we0dRHIjqIKqApX3FbVGGd1qmd+qn1SUueTZgMvYO5wBd4tPzlOc9r6eXpOSIi5O4iIgIiICIiAiIgIiICIiAiIgIiICIiAiIgIiICIiAiIgIiICIiAiIgIiICIiAiIgIiICIiAiIgIiICrpvpvprLs6Brsw0LehaOoynDpXe3S37CsNVTiKKSV3xY2Oe7waCT+Cp/U1Lp5JJpP3kz3yv+k8lx+8q8I5dW+NPmiLIpYdbKl391C147iZomfg8rq4MdfWlqXwSxTRO0ywyMkjd2PYQ5p9oC+SILdWC6MrqOmq4+DaiJkmPmkjzm+IOR6lnqNtwtwMtpkgPOlqZGt+hIBIP9TnqSVws1Xrxu5sRFwm8bZyvnE1dRXiopBBSk+SxukZFIY9by4ua8YJBxnB+KEhbp3aKp/8AxddCPSlbx/6qb/urI7B379J2ukqiQZXM0TgdU7PNk4dWSMjuIW5Y6Tjn3N+iIpWIvjXVbKeGWeVwbFCx0j3Hqa0Ek+wKrtx24uc880wuFXE2WR72xR1ErWRtJyGAA4AAwPUqxx2jLPtWoRRVuvsVxqY6K61N6qXxOdI4Ubnyysewa4xrcX458cYPIKVVlmlS7giIsaIiICIiAiIgIiICIiAiIgIiICIiAiIgIi0u1lmmr6YQ01dLQyCRr+mh1F5ADho4ObwOQefUg3SKr1+vN3oKyppJbtVufTyFhc2qn0uHAgjJ4ZBBx1LsLVsftRVU8VQ27uibMxr2smr6wShrhluoNaQOHVlX2f1zme/ScUUIVdt2wtjelbVSVbGcXCKRtbwH8krA8/ZGVsdkt8zXvEF3hbC7OnymIOEbXZwekjOSzxBPeAs7fpXd9peRfmKRr2texwcxwDmuaQ5rmniCCOYWt2mtctbSSU8FXJRyvLCKiHPSM0uDiBhw5gY59alTaIqy7VXG72uunopbvVvdCW4e2pnDXtc0OacauHAjguksOy+09fSxVUd2fFFM0PjbNX1bZCw8nYa1wAI4jjlX2f1z/wBPWk7IoQrNmNrqJpljuL6nTxLYaySd+O5kzQHeAyv3sbvhmZK2nvLQ6Mu0GqazopYnZx+tYOBGeZABHYVnb9N7/tNiLxjgQC0gggEEHIIPWCvVKxERBpNuZCyz3RzeBFDU4/8ALcqohW42lpPKLfXQAZM1LPGB3uY4BVGYcgHtAXXpuHV9PVu7BT66W8u/u6GM+vyum/7FaRddsZDqt20Z+bQRH/1dX/xVVzxm65FERaxMnwdnn/mrer9kd6/1wP4D2KZlEfweaQimuU/VJPFEP8NhcfehS4uOfL09P4i1u0no+u+qVHu3LZLV7U+jbh9TqfdOUrqtNusXlFkrK1jcyUVVCH44kwSM0n2O0nw1Lt9wV+6KpqLc93m1I6eEH++YMSAdpLAD/hlZ+4ajZU267QSt1RTPZG9va10RBHsKjIieyXXr6e31Xh0jWn8HsPseu3O44fHWS2KLHt9ZHUwQ1ELtUU0bJGO7WuAI+4rIXF3Rlv3v/k1uZRsdiStf5/HBFPHhz/adDfAlQ1tNZHW91HHJkSzUUVTKD8l0r5MN7sNDR45Xb1g/4l2t6P49HTP0HraaanPnnwfISM9jx2LG38txeo++hh95MP8AZdcfHhwz87qVt0voC3fQk97IuuXI7pfQFu+hJ72Rda5wAJJAAGSTwAHaud5dseI9WDXXilpjioq4IT2SzRxn/UVCu3G8mruVT5BZnSMgc/omvhyKiqceHmu5sZ4YOOJIHBbKy7kNbBJcq14mfxdHThp0k/OkeDrPqHrW9uuU92+Es0N2pan+HqoJv6U0cn5Ss1Qtfdyj4WGa11j3zR+c2ObSx7iPmSsxpPZkesLH3fbzamlqG2+8uc6PX0Inl4T08gOnTKflNzwJPEdZI5O36O7V1U4oiiLfNUXuNkr43thtDTGwugk0zv1gDMp5huo6cN4cs81km1W6m0urFrrjBTDNRURQtPIyyMjH+ohV+2R29qqK1vttEx0lwnqsUztPSdGyRrQdIPxnagcA8POyeWD1Vv3NSVX7ReLjK+qk857YsSOaTxwZZM6vUAB1Ku3XKZnvhKdDeKSpOKarp5z2RTRyH2NKzlXnb/dlJZohXUlQ+anjc0PJHR1EBJw1+pvMZIGRgjI9Xebmds5blDNSVjzJVUoa5sp+NLCeHndrmngT16h15WXHxuEy86qSkRRLva3jyUcjrdbnhk7Wg1NQMExZGRGzsdggk9WRjjyyTardTaT66509MM1FTDCO2WVkf5iF+KG8UlScU9XTzHsimjkP+kqFtkt0s9yjbW3Sqli6cB7WfvKp7TxDpHvzpz2YJ8OSy9pdyhiidNbKl80kYLugnDA9+OpkjQAD3Ece0KtT7T3Zc6TXkdqZVVNkKOmq62Okr56inE7hFHLG9rejmJwGyNeDwJ4dWDj1WA2C2KbZBVBtU+oFQYz+sYGlmgOHME5zq7uSzLHRjlv06xfl7w0EuIAHMk4A9a5/bnayGzUZqJBrledFPCDgyyYzxPU0cyf9yAoXtlDd9r6iR01SWUkbvPcQ4UkRPEMjiB892O057TxGUx35bcteE6u2mt4doNxow/5pqoA72alsoZWyNDmOa9p5OaQ5p9YUVs3GUWjBrqovx8YNgDM/R0nh61x9/wBm7rspI2qo6tzqRzwOljBbHqJ4NnhJLePIHj6jhbqXis7rOYsOi5DdztvHeqd2poirIMCeIHhx5SMzx0nB8Dw7CevUWaVLtVreh6cuv9Ye7YrLWH+Co/q0P5GqtO9D05df6w92xWWsP8FR/VofyNXTPiIw5rPUXb49hY6mnkudLGG1cDdc7Wj+Ihb8YkD5bRxz1gY48MSivHtDgWuGQQQQeRB5hRLpdm5pB+4/bF0cwtNQ/MMup1IXH93IAXOjB+a4AkdhB7VOKqTcWutdzmEXB1BWP6Lj/cyks+5oVs4ZA9jXt+K9ocPAjIVZz2jp3xpW3fN6frfoU/uWKeNhfQ9r+o03u2qB983p+t+hT+5Yp02GnYLPawXtBFFTZBcP7tq3L4xmHyroVXTffbY6e9F8YA8qp453gcuky5jjjv0A+OVPdyvdJSRmWpqoYox1vkaM9wHMnuCrttTXT7S3pxoYXyag2GnaQRphZn9ZIfkDLnOJPLIHNZhy3qcaTLuerXz2GiMhy6PpYQf5I5HNZ7Gho9S7RajZOxttlvpqJh1dCzDn4xrkcS57sd7nOK26m8rnAiIsa8VUtt7ObfdK2mxhjZXPi4YBhk89mPAHHi0q1qirfrsuZ6eO5wtzLSjRUAc3U5OQ77Dj7HE9SvC6rn1MdxBa73d3DqtG1R7LezHqbO7/AGC4JSjuop9dm2m/npiz2QzH/ddMuHLDlFy8JQLrd2Wy5u1yjY9uaWnLZqo9RYD5sf2yMeAd2LbdJk3dJy3W2Y0Fmo43jEsrTUSgjBDpTqAI7Q3S37K6xEXnr1SaFqdrTi13HH/g6n3TltlptsnYtVzPZRVPunJC8I8+Dv8Awtx/rxfkWr3/AFg6OemuUbfNnHk8+OQkYCY3HxbqH2Atp8Hj+FuP9eL8i7/bexC522qpOGt7NURPyZmHVGf8wAPcSrt1kiTeDjtxF+8ooJaF7syUT8syeJgkyW+x2seGldNvJ2g/RlpqZ2uxO8dBT9vSyZAI+iNTvsqBt2t8Nsu9NJJlkcjjTVLXZGlrzjj2aXhpPgV2O+Gtkul4orNTOz0bmNdjiBUTcyR/JHg/actuP5Mxy/Fvdwmz/k9DLXPbh9W7RFnmKeMkerL9XiGtXH7+/TUX1CH3s6nq3UUdLBDTwt0xQRsiYOxrQAPwUD7/AH0xB9Ri97MmN3kZzWOkp7pfQFu+hJ72RYe+e8Oo7LK1jtL6uRlKCOYa8OdJ7WMcPWsrdE7Oz9u+jMPZNIFz3wgoXOtlI8DLWVzdXcHRSgH24HrUz5K/Rz3wf7O2SprK17QTTsZDDnqfJkvcO/S0D7RU5KI/g8yjya4x8NTaiJ57dLmYH3sKlxM+TD4igHf1Z2QXGCpY0AVsLukAHAyxFrS71tcwfZU/KF/hEyjVamfKAq3Edx6ED8D7Ew5Op8Xc7qbu6ustJJIS6WIOp3uJySYjpaSe0t0k+Kxt9P8AZ+s+nTe/jWHuJiLbJqPKSrnc3wGlh+9pWZvp/s/WfTpvfxp+x+qO9wdqZNcampeMmjhb0eep8xc3V46WPH2lPihT4O3727fQo/xqFNaZ8nT+LQ7exh9mugcMjyKoPrEbiPvAUMbhXH9NP7DQzZ7/ANZCpp259D3X6jVe6coV3DemnfUZvzwrcfjU5fOLDKqI/a72PKPO8ouYEod1h9RhzT3YOFa5Vx3q7LTWu5Pq4Q4UtTMZ4ZWjhFOTrcwnqIdlw7Qe4pg3qcLHBFx2xO8GjukEeqaOCtDQJaeR4YdQ5mPPx2nu5daztp9taC1wufPUMfKATHTxva+eR3UA0ch/MeAU6vC9zlX7efC2G+3NsXmgTNkGnhpe+NkjiO/U4lWatU7paankeMPkhje4fzOaCfxVbNnbPU7S3eR8jTolmM9ZIAdEURPxAe0jzWjn19RVnGtDQABgAYAHIAKs/UR0/dVv31Xh1TeZ4iT0VCxkMY6tRa2SR3iS4D7AU67E2ZtvtlHTNABbE10hHypXjVI4/aJ+5V13mxmO+XQO5+Ua/U5jXj7nBWgpJA+KN7Tlr2Nc0jlggELcuIYfKvssO8W6OtpZ6WYZinjdG4eI5jvB4jwWYi5uir+764vtl9pcux+0GjnA5Oa9/RHPcHaXfZVoFVOL9ffm9Hx6a75ZjjwdVZB9hVrFebn0/arW9D05df6w92xWWsP8FR/VofyNVad6Hpy6/wBYe7YrLWH+Co/q0P5Grc+IYc1noixLrcI6SmnqZnaYoI3SPPc0ZwO88vWuboq7vCeDeLqRy8rnHsOD+CtBZWFtJStd8ZsEQPiGDKq5YqCS8XWKJwy6tqTJPjPmsc4yTHPc3V9yteAumfqOXT91WvfN6frPoU/uWLprBuZhrKKkqjXvYaiCKYsEDHBpe0OxnVxxlczvm9P1v0Kf3LFPGwvoe1/Uab3bVttmMZjJcrtHMu4iPB6O5uD+oupWub9zwuYrIL1shMOjlYaad3CQRtkp5nAfFeCNTHY6sjrwTgqxS5befRsnsdyEgB6OnfMwn5MkQ1tI9Yx61Myvtdwnp8d3e3MV7hflghq4MdNDq1NweT2HracHvB4dhPXqtW5uqdFf6NreU7J4n97OidJ+aNp9SsqsymqYZbgiIpW8X5kja9rmvaHNcC1zXAFrgeBBHWF+kQVq3mbEPs9TriBdb53HoH8T0TuZhce0ccHrHeCux3KwarNev53yM/8Abj/7KWrpbYayCSnqYmywSt0vY7kR2jsI5gjiCFBt7rqrZKattdG9s0FdG2eCSVn62EvJjPLg84Zjjw+KccwekvdNOVxmN2juz26atmhpqaMyTzENY0feSeoDmT1BWf2G2Vis9EymYQ+Vx11E2MGWUjifojkB2DtysPd/sJT2WHhiWskaBNUEYOPmMHyW/jjJ6sdasyy2rDDT1ERQsWk23OLRdD/0NV7py3a4PbvZG6XSSRlPdRT0EkbGOpjGTqI+MS5uCQeHDK2csvDn/g8fwtx/rxfkUuKJtlt2N0tdQ2Wnu8bI3SRGojZE/E0bHZLSCSM41DPMZUsrcuWYSyaqtu+KweQ3eV7G4grQahnDzQ8nErf83nfbC6PcZaH1ddV3apJkdFmJj38XOnkGZHZ7Qwgf4i7zelsi+8ULGU+gVcEokhMji1pB817C7BxkcfFoW12H2fFqttNSeaZGN1TObnD5nHLyM8xk4HcAt7vxTMPy23yr/v8AR/ziD6jH72ZT1WMe6KVsT9ErmPEb8Z0PIIa7HccFQ7dd0NzrZjPV3iKeYgNL3xSZwOQABwBz4DtKzCyVuctmo7bdB/Z+3+E/v5Ft9s7C26W6poyQ10jMxuPJkrTqYfDUBnuyuS2J2Futqmgb+l2voGPc6SlbGdLtQPxS7OnziDwx19qkhZeWyeNVWvd3tA+wXaSOtY6KJ/7PVsIOqJwOWyYHPBzy5tcSM8FZCnnZKxskT2vjeA5j2ODmuaeRBHMLltttgKK8jXKDDVtbpbUxAa8dTXg8Hjx4jqIUew7tdoLc4tttzZ0Wc4ZUTU4J7TEQWZ9ZVXWSZLj4TRW1cVPE+aeRsUUbS573uDWtA6ySq27ZXaXaS8tFGxz2uLaekYcjzASTI75oJLnHsAGeS6qTdhfri4fpO5s6MHPnzzVWk9rYsNYPaFJGxmw1FZmHoGmSoeMSVMuDK4fNGODG9w7OOUmsSy5eG02Zs7LdQ0tHGctgjDS7GNb+b3Y73Fx9a5rfT/Z+s+nTe/jXcKOtvNhrld55Q26tjoHGNzKR0bi1rmtAJJbjV52TxUzlV48OZ+Dt+9u30KP8ahTWodse6q62+R0lHeY4HPAbJoifh7Qc4IJIPXx6slTEty5MNyarR7c+h7r9RqvdOUK7hvTTvqM354VKO8DZW43QiOluYpaN0PRzQFhIldqJJJHHGMDGeOFxlr3P3KjmbPS3eKGZoID2RSA4IwQQTgjuK2a0nKXulTQoS3wbVvr6llkt4Mg6VrZ9GD0s+fNiB7GnBJ7R/KVMdrhljpqeOol6adkMbZpcaekkDQHvx1ZOT61WfeFYIaC5TU9PVGqkfI5zo2xnXCZDlsbnAnW/zuodnamE8nU3pIbdyFM6nhDq+RlToHTkNjkhc/mdLTggDlz6lkW3cjQxuBqK2aZo+RGI6dp8SMn2ELmbduSrpYY5JqmCnkeMmEsfI5mepzgcZ7ce0rIO4uq6rhT5/oyD/dbv+s1/ymezWimoIWwUcDIYRx0sHM9rjzce88VnKs9eb1sxVsjNS9mRqj0yPmo52A8fMdw7iMBwz3gqd9hNqGXigZVNaI5A4xTxg5DJW4JAPYQWuHc4KbjryvHLfhG2/fZV/SMusLC6MsbFVgD4hH7uQ92DpJ6sNXQ7nNs4qujit88gbW0rNDGuODNC3gxzc8yBgEc+GetSNNE2RrmPaHseC1zXAOa5p4EEHmFFG0u5eN8hntVT5M7VqEEmp0bXcx0cjfOZ7Hd2Fsss1WWWXcS0uL3nbZxWqikYyRpr52OZBGDlzNQwZXDqDeYzzOB2rh27H7XNb0Tbn5nLV5fMTjueWawsuxbl3Pl6e8VpmJIc+KF0jnSH+ed/nEeAB70kk5pbbxGi3H7LPqa0XGRhFNR5ERI4S1BBbw7Q0Ek95b3qfl8KGjipoo4YI2xQxtDWRsAa1rR1ALV7W2+tqqYR26tFFP0rXGYs15jAdluO8kexZbutxnbFdd6Hpy6/1x7tisns3K2SgonscHMdTQkOacg+YFEM+5Otke+SS5wvke4ue90crnOcTkkkniSV9oNzlyjaGx3kRsGcNZ5Qxozz4B2FV1ZyjHctukvXO6U9HGZaqeOCMfKle1g8Bnme4KCN5m8F15cygt7JDR628mu6WrkB80BnPSDxA5k4PDC39PuQfJJrrbs6Tt0QEyH/ABJHux7CpA2W2Ht9p86lgzNjBqJT0k5HXhx+KO5oAWTUVZlfDn90uwZtUTqqraPL6huNPA+TxcDoz1uJALiOwDqyZERanaiiq6mkfFQVQpKkuYWzlofpAcC4Y7xketTbuqk1NIA3ynN/rfoU/uWKdtgJWvs1rLHBw8jgbkHPnNYGuHiCCPUoxq9y9dPI+aa6xSSyOLnyPjlc5zj1k5X6g3N3GIaYrw2Nuc6YxUMbntwHK7qzW3PGWW3Sa1Ee+XbuDyaS10crZZpiBUvjIcyKMHJZqHAuJABHUM56lhu3O3GQFst7yw8wRUSAjvBkAW6sG5egp3NfWTSVjm48wgQU5PexpLj4F2O5ZNRV7r4c1uI2ZkfVOukjS2CFj4qckY6SV3mvc3ua3U3Pa7uKlTaa+vpA8RNH6qB9TPI5vSCKFpxwZqbrcTqwNQGGOOeQO7ghZGxscbGsjYA1rGANa1o5AAcAFqNobH5XktcPPhfTzxPL2MnhcQdJewhzHA8nDPBzhg54ZbutmOpqPjs/fn1D2RyhrhMyd8MrI3RajBIIpmOYXOAILmkOa4hwJIxjj0K0VjsPk8jZHlrRGyVkEEb5JI4Wyva+Tzn8XZLW4GAGgYAW9WVseIiLGihnfTRa71YuH8QWQ+OKhn/6KZkLQeY5clsumWberxeosaIiICIiAiIgIiICIiAiIgIiICIiAiIgIiICIiD8yEhriBkgEgdpVYt3FQJ9obfLVHU6WpkkeXdc7mPc3Of5yPXhWfUF7w919VDVSVtpY6WGSQymGI6ainkzqJjHym54jHEdivC+nPOXxU6IoMte+G4UTWw3Kg6Z7eGt2ujnOPnNLSCfABZk2+WsqQWW6zkyngHF0tVg/QjYM+1Z2Vv+kfb4Q1TH0VuhyDP0ksuOsRaQ0+ALiP8AKexbPcDRvjtdRM4YZUVbnR97WMYwn/M1w+yuXs+7e6XmrNbe3vgjeQX6i3yl7RyYxg4RN8eXZxypuoKKKmhjggYI4YmBkbGjAa0cgtt1NMxluW2QiIodBERAREQEREBERAREQEREBERAREQEREHiIiAvURAREQEREBERAREQEREBERAREQEREBERAREQEREBERAREQeOaDzAPigAHIYREHqIiAiIgIiICIiAiIgIiICIiAiIgIiICIiAiIg//9k=;" vertex="1" parent="1">
          <mxGeometry x="630.22" y="950" width="159.56" height="43.99" as="geometry" />
        </mxCell>
        <mxCell id="1wy1hQolOM4I4YxT3BYF-18" value="" style="shape=image;verticalLabelPosition=bottom;labelBackgroundColor=default;verticalAlign=top;aspect=fixed;imageAspect=0;image=data:image/png,iVBORw0KGgoAAAANSUhEUgAAAUwAAACYCAMAAAC4aCDgAAAAyVBMVEX///8xYZMAAAAyYZPk5OS8vLxOTk7a2tq3xdcYVo4tX5H8/Pzw8PAkWo8YGBj4+PgICAikpKQTExPR0dGhtcu1tbUoXJAPDw/X19cbGxvr6+tcXFzIyMjh4eEwMDCRkZF1dXUjIyN9fX09PT3G0d7g5u0ATIdoaGimpqaJiYmamppsbGxeXl7P2OM/Pz9HR0cqKipnh6uPpb/I0t/d4+tbfqU7apkAR4Wqus5+mLZMc5+5x9eBm7hkhqyQmaJMWGQAQIGYq8MAPICLHlnZAAAZSUlEQVR4nO1dCXuburY1whMCjEc843m243iiHpL7jt///1F3b0mAsHHanjZNbsP6zqkHgW0WW3uWkkjEiBEjRowYMWLEiBEjRowYMWLEiBEjRowYMWLEiBEBI5lpTTvd5tpx1unJrFBpJ42P/k2fBslSqlJJtTJ61KBRmc47c/hvmsrga6syazo5EkLRaXZSf/Y3f0bUUsu6zEp63ipZ/qjRmoVZc+Zp8gj5eeYDL+TjUVhU70mpNrvTJBvuPGaO5J/Xy8lksmw6wc3oLdoffEEfhswkYMYZrJ8GTjHgqres9L3nz+tmc7lsNtcD9nKw7FRKDemDjGSqsxDnpmsfdj0fiU6Py6HTLaRatXY72a61UpX5wunJAthrTlvJhsXQaMN4J9W2InSrlaykmZTXZ3/+Uj4aDS6W63npdkRvpOZNT0VWGpFGCWCN9qvdcLfaj3wVW+qykyaNB6f8rSjhjM2nMx4ROkpewJvVSPUHxfpc0GIZI0AjOGC0cVVbQ5gaVQ8vO86obrBb5Hwtw157xotu8RejXXm72by+bk4v1+Nq5HmMjRQTWmtfPh1chVLFPWyu2T1nbb81NUVRVFWBEVMbK5ssP6/FhLPy5y/pw5B8QlPBHJnRcaOYABsAD5ppn0/XoeHJ4Kh8wPcoAxyg2YftivG5P2k2UAn/IanUNN3riH32AtmcftCVfQBQty3R+9HLqmZSRUBlkmYDe+6mjIzpR1WzPcIEbM08Z/mgbfpswoOtqewki7mmX2amV+Bimzgr9+6Y+myoSiBntnYE2RydxyGiqcqf0bHCJvVoY0o8w/uau8LPn38hNnW01egODl1T0ACgXC75U20Lw/uz5osdkknFODy1tQ3OaWMz9ocZTDWL34CymfvQa/xjmMKl/gced2M7ECvk0n9hbkAuV5TJnSoGAl45beYV9epW8yj2hPaKUx3Z7H7sVf4hgFPuwCwdKXbAg6oEggnTFcRuRG3VGxEkqrL6pOMT0rbVVFkVwLko1Nb/gbv/FSJ11JgdeNxoYSL9OaxoR6DjoCkP4Mno+IBTvTxWpXfh33E5wT2kr2DRYQpWwZLvTBqwEExkVIivILdlM8yfevMCX5uMTe+meMdQcwjvOoQ8ffSVvj+ScJl9PWFtTCWQxhBh2g4muU0lBXl7BE5n/FdzIUSygM2w8+TCzegTUvzoS31/1IosQNnbVA0x5TNmnuGoF80TVvVWJmWBNQ+ofF07PIyiCcqk+vdn38GWV8E0lG9Vom+tNdB5e0r9d9VbAZXOUTW0QlkzfAjaoBaYub/fAoHKdICAsx2axYHHTtURCqZEjuzV31Cqco90q0nyrSrmiUesdwmpvw4QSjZhapoeibe2xdyAGtSozJoaJjMkmso3CHos05beU8xXK2GsvwKZIDF9CH406eJDEvoNFN5lfD+xVYWqEqU+wfbZCE10vB8HK9H4EmQ+E1KAq5dVpiya1DQS+ovIYDC5pWIgRKLkB5hX9EpNacwGMo00IX9/QSjH8phbM8SjHEmieaY3xsaPf9SQrDLQ8R5iT01wjJybrzqTzEdJ+r8HRZbkeLHVG67EM7TlwxDLnglSbzWs90x7Abf1YPuyykL7xhPJf/Slvj/y6LLop9s0pQClQ9ltCntGAY2qP9XxXxNE82J6I/D6JZFoD4jz0Zf6/qgyMjd2FEkwS11wjE5aMO2DqP0mIBKJEfxHA9VgcKXK8nQo3a06SX/0pb4/PDKjRc6GkEZ3bZUXdyiNOEpKyGF6XRuPx/8ErikzSVkWAX2Bmq8g0wxx48OEiAa9TCDJds/nM9VMqnqpjcCz524SxYrQcTgcZoHM1Tj4kBULtFoffanvj5wgUw0x6RsTCGhG38yx8pLdG8Dr/nLQaPgY/0Tb3O6Dz234YkyVEQu0/n43E3NjEDOfTIkdaSpjKvMyPg2D3i19qNjiEDVUKDIPe/lzR4qX0kM300qT9RfoRUh7fqYaGOVgqiOZq51wEA1e8R1qVA2lPdkDpZjM1PfDY/mYXemJkciNQLgOxtyof4myRZelwI+aKvJrYedcu4jDRkdsPXA3WG7kyXTV8zaFYsTS2VEdq+pYG4Ms8gyod0NKeTL/wIv8U5iJ2DxwEwMqgYghO2i1AcujnTev9j87EDOXiSaV5FJBsw8sX/eGMdTsE0imp1sphRtQIOQTZjNHu8slm71cVqPo8dUwezwes5fVj/528FmWicReC7gM6UzgLrHbfAOVqkHMnbCymJHbhhKW7CmO7rUz+wkaOpZgzfmn0TN4V31Cfsvl/z4Yw9PZBSeFta2455f97fhlc3ZxTENH5nCUxzeb11Xkh9aK5AnCP4VGRNuczItpMtV3Zce7MJ0vtpwUwpmuajy5dNQTw7OtwTHZsWfkIZg0Bp/NZR+9gr9n2jZodhseqeJuQ+J3ecWmKROGsQsIxs/lwAhrVMtGfmr7meTaicRBasaQ2ESdueXuNzVB9yWy/4A52XPqVY961AcrdqCmnjVbFS/4zUGVmeEF0M+DlWZT83w9XnYrmMvlDdBluoG07TcaUOxu+fixfIBxLRjXqBlNptFkHuBWC1kej1UksyyGqLa5vppYEjLO1LP7XmlyDN90BdYppoWxzv4q0s0KJpHmpBpy2fUQ3ouxx1i51HavgSjqKwgB7bOnOi9nW6HnYzBu7Q7Y91cWLzXlAZlYN6z4+d/bPDuK89GLZVTQIECp4QVMsp8/HuKBnF9qijoIs0wufEeTDKRkplHoe+giCpU/7IJi9Gxfwu9t4a0X/jTr2tTeWuFTjvimYPMxmQVW6t0HzW8Ys3htRNxp9zPArCVh5c98j3uVNyowm4Mmh8K9dCmXWlS17V7Iy0yu8zfrEAbzPyqeKJinm/cMJBjNbaLhUuoO707aH4BNPtMfTvNEEsy5JWaulDAXqlAiU3DHhFXzX4sxE70hhfrCKLJGMDn2zGOQm+CS6Vx1MZvNuFwu0kVSRffsz2FI2c8K40JZkSBhbYC0XcRZcHksiYaS+cAAYUYT5iDLaN4rTU6m9Aa36llJMgM/kzcyALFn7Frg0m2/Wgl9Qaqy5AGZQaAOA9a0V/w5A2W1278iylmbundkwlyyN7xQbUdTlcUj8HsfT3NQaBhQ3hXOGTzJlIo8mOr1qhKBZDLX/MpzTzaSKSQTPyDphKkKkckwzVWffkZvpn4tBijb9Hznp1sHk/X3AGMHK+osnsHAif4GmSkWUK60oCIh9GAgmbKpwSr4XmOJOBooBVbf2HPFKqY5s0V2A2d5McTdPZmJbj7/M33vv0hmlkZIpn48nbajxBF8xEvUSXgIXD32BTzWmYlWHmMgzPLc14ECnemXflDSR6ZyUzdXURx18FZZEc03QFiP05s3HnsEmQVS/Bmt+YtkDumdMfdgnWwM2R7gatKD/qbO1NOsPzPUQy3SvSzRIZIgQkUqnMzA9nvWCj3NLBNi9J6Ea2TC+aXiTZIjgswkKS5/Qgv+Iplgzek5eiqPXGqWI0cQO5iMqzeneWLBXGrutgeZNR5yX9AX92Y5e7wl0+MUdalB2T1Ap51Vzik2wHUISYa+L4JMixSbP0fmA7X2Y0A3aBN5O3agMh/Nck718G0yp6wPYehVLryuYWaY4T68SDV17BzaiJTQTcjEEupXpnlRSFkNaIwNCXnSDF95BJktUlwwMjOVRTq9Ti8qQZeX0ZpN0ut1ujlrsc9JtlqdajHVarWQDr3VacIJy1lJhyNboKIbLTiuNl+m0/x7a5VFM92cdFrBrxi64Ae5p+H+7paUQRwe3yfjQFFpvqEzEyVCFnqQGperjfYIb2Pgd4as+Q1Qv3LNi1mP8hj7EQzmZN7YlggyZ6RaYI+DPMkXq/CP0xHmvdTMwVv1Xi5PihNcxzCHl7lcNZ9HJ6S27IkzegtQKHnwZyvFenvq5HEdqIXrkJ7x9GKe1JvBl14UXMukuJuX4yi09BO0ovqQS+aDvr6pMxP6M8mBl/h634iAfarWwZYY5iHNRfMPCU5gXUYomoxWVJ8aGH5rQgY3E+qeTCNdrQMz1oKQpw6IXAqXsacZmxmH5DupVqlUSs2qrDG+Mlmkc7nuYrGoJSoOHDcHKU11nkm3VOdkPrdyxOl3ZhDZ1QaEzOB0OKBI6sFdXW2pZuO6MHA5T9mh/wu3JnUfk5l4AfP09jTXJ8zTvMpN7Rz2WcdUcChg57mPIEriRQvVE02MpDCSWKEPsGIF89scO5IZWjltNIss3myS+kyIiV7JkQnOtz5xfOJbEJbq6OenSN7ADEm7mH9uiTOsOZk8V5HMnNPMz3R2YNshT95XtdOkKgVi1nBzYPIJjCru65bXuThbv0AmKk244L3c2q/6ZI4UXz+qnnVhjcRhOUadgBYSc0zmVsdAXYMQE8jI3Wr6ZLpOprWSAIghzO2nJMsSSLxPi+j+Gk050uyKhImw5nqXVCUVAl/FyKzXvXNgWkjGr/FMwqGBsbuczi6IKASQpvs65Gy9JZkguN8js9RDKdCVcI8Mrg1AMl259UA1D6iHo2JP8I7AqbBs6pO5YpF/4fbrQDJzvQC4zH+ZwbkeWkMAc94B0XqSo6d5vleSyMwUqxPpjPZTkZNZ9NqaUtVQ7FXrVe+j1tGl/HJwYbrb9Poj0/zwts5knmZb7g/2yKQuT4Gogcyy+sSdY8THqGKwRBwnE2lHy3LnggCZ9VDSaFHCY5IkF7JUKZyVjTSR+GqU2JEemVNSDKVJZ4ST6d+/xY0odrGxN+L6jf3wAN6eeUxc7e8YIHvztjVnqxthSg3tG2+H1283wdsQQWIcVva6sqgXnvMFbSr6DWDIeNyEblUtqsSLOrNlNAR8rlPkOdz1zoQaCFq32jc3RJDZzIeL8dOqIFNoWZD1cFxVIU7Y5ZVwpJgUyipeni0KYBGw3vCmZOJk7AvjEQZ3cqRZjokVoMsTXd/PF80bWG4bjtlZ3zDBMovqiolwjRB9sg63w9YJmKP2Gnf2mcw6U4kGQeaaLEMst/g0z+XFp7cH+eW0EGDaJ8XHe4a82Ao97sFpf0zU3nPa3yJTX5BcAzuE/VqElxyGSW2MJY7RH8c2omBVr5jjIpbHPMDrGOUZyxVtQrr3LvADMhckHRYbJ7+wMEHXH3gbhKTEaYLMAVmEPr3EDVCuLhiryVu2CMC9HQ2HUUHOCFPG4JZ7CfcIXHiG5E0D5PVVDf1km+8bYTncbynkCaHERuP92MF6C59tqmBvJhg8S33RE/ossvf6AZndezL7nKtkuzRLD55zIKNcG3qSmW+GJDMlJLMnyATHqN/OhGGhBtK+RUU5BwrWBbx290EZHYUXVeb3yCxVyQIYoKH8BRKGgeqet2Grwl7v71Rr4JqqrDcTpRcnfKke2Uf4gMwOGYR1ZtgUJzKpglPlKXtB5iQfVoFzYYA8MhvryO8faap2l4FLoHEAv2dlKg9Fc2+yTON3pjm2HOHv2kgLeDhB2I+OJTWpoW2r3dCoCqedsf+N39YTVgAm5DlK3z8gs0Z6oXcbaBV1S5ahWi/PzLEgE+y9fIbezYclM7G8MX+WgacZmsLK1reAGQ4OyCEqDc9xMvnQ29acWQqsUWrhpSioJPFrT6Lmg4lhy7XDR0ixEJaIWKVqDz4VRuWRDUYPyEz2qiHbOyf1UiL19CSZDGtSZS6kILPt5OVMaa1eDEtmopN3ZDUD1h2PB2ePFShuoOPbQnVGclSmis06Mb4nmWAqJvg1/qYlHldMC1pXjbUWj3f+kiFVuaXdi+fxe8pD9tPrkWmuB2RaXZKTcg6ZJ3QKW1U5TWItqnV89PKZHZEf4YPral1EQB6ZSUf2UlGS8e5ivYvelx93KqU4icHxM6Mm+lDx8nbf0Zl45Xnw2a7jW32omiyNelG+QYzg4qIgTZUIvEl2KMJzx+bDgrzEPCNJyAMywbPh4ThHM4/FjtozKnP/Vzr8lZfPNOok72WXUmmy6N2QKQJlgXaOrBkZQ5srrDBONsv8ssyOeS+bWE4TlaPvkSmSmiO/yzoQUL6M3Dq+unjDcM3ubeOh4mtNboPYL67BTy+h/Ux1JuiiBFtFYWwe2UbcqZNBqWFYltEopUV5GIRvmcT9qHSjkVwSPoNbxfwi2UhaCXiH1NOzQmH2BHqqVA+7RoBZvtqFT2T7XD0TJ+PzRt1daKYb4BeyAg/buEWxz6FhffRiUr+eATrzcQIZYVVxBxnWqxGQyUsXh5H4wD265Ad3HFrILx3Kj6f/z8rPkzsXz7PV7XX1QU823NH8YNLtLsGzrHKxxrRcPd3vzGcLuAdCziygujdwwJszps950chQ8fzMquyZd+DIdH/eWQDbA+9bR68mRHenoy+dq+wZm4/Ea2NjQqS+8Yet4dYFsaVnERtpin06lu9wlL8Vk4E7KrVdcnuOhU/dD9vAvK4O5l3OKGhhMM+sndGYpZ+r1bqTnsxSmXZ7lg+WWzT66fSD5dK1PtsxMt976vt6obJweizV2xv0vXBK7z85zyI31yrM5/MpPm8xMlvNpmx1Wl2+CWWv2Qk0svGisEzR+fB6Om0OZwXkTi5kHM9i+PSyeT24tompZPif7eqSwBUT5j2k3B03QbjqUaVepAiPtorOwHzQkX6gtfHbvDyXyPf07YN3P412rZRJis26UMDS3h2BuPzh/nztUqVQSNWS0gFGO5OqTCtwT6TW+mT7vhGhUsQUs37z6Va7NS3MK5lQGK8PD2xbMUxnUra9mJuVreXoqopxmx0Aw1k8mFmmcQSTYTLFgojdN9WftZjYQOc7wfdzncyZyGHWla3mu9mVh0vomO02dbkz4+An9X+pCBYBa7YMOeWdu6T+mzheX88u/GzXPb+U76OeXXkDw7atuOcT24ptdLYV7RWeXS6X4YVhGGA3lBMkKbb3kHUWPDGSqDLkI/7+eGX3xRB1CxoOPXmGDj3RK9UOF7FRoTVaMWY7EYnNX0Y3xJ7RjM6wPYY14nhwC7zhkZB0YNN+5NDfQHcImsGhFlBDx4xLkS7A4O74jY5B1HU3lGAKzDuauaxGVXtMz6+bDaijsYtdULUeIb+/cXDK9Lz/Kv/e2yEaJ+Vxfi6MCt8W66R57FAWidZ4/9/zVMd6MOUumthwRzI8HHTH11urKtZWNE1zWftyckDepdHNyQ8qbKNP3Up2crKb+j6wfliNWLyJWOz+grtlobrNgEzVm33WkDrCyga1xeLUG2eTA+7c6RvobiByrLkb3n5bwiLieyy3SMFNGjT7nU4/3SP55Wdat9XiuxXyVVMK3wqm8ZTrp4QZ3TOfaIyu7Sm6bZvFEPsyTO/NaZtdcWVjzNE3eZ/VfknwwHCTeHDCJpX3lsufw4wrxivb+VHDXKa1WHo+kVGmJk591nB3Mv3VqHJwHpULrLAdi3+/9RFo1FqtVKpVynwuKvmURo2eVTTNZD5sf43v68Yqu8HthFXbZPvnCZ0ZnurgAtx0kOlWZvr05TbK9QCiOcAU5Op6OiJpBYzf9MvmDOzikpixduQCILLtt4EQ6xPN1CAaNhqZWmq2dBiV9a/IJaZTiZRAnPMY0Nge0HvFhVpsQ1xLbkBUZUcT5bYB5DmOtL37oPMJl/r9CVgwK3siArY6qNmZ4dCN0X6/5/bE6mdC3Zyh3pmtjnGpjHTtM9nYP4sa2sZJqt2oFQZiioZTVeCNtHHNlDfNpW0ReLsR+ATd5pPjPKUXncIX2P7gLbRwz/aqMwBtVy/g8/yk0PaWkSUryxypi+WBUinTy7qPL8z3T7AWA+Oz2dcPQLIrJugk6T/HjGJntuSymmuL1Xwhdcklc8WM2EdfwieCXmo6PSddQWnUG7On0B8I6q4ZmRt/Hwo5ccQWsHTJ80dfwedCshbUaK1SqjB5cnL1nLPulBJNTma4yUv0GqHPri8+23Lozwad/9Eai+W5ct4OKXfADs3G+ktsx/FbYDVJUZApZ9tFc+yGrTr9XGvLPzH0CeskO2l+kUhiFSukpa+xifjvwYJUa96OzmEqVcXeMjfzi/wdi9+ALguKXqTtZrwyB8+zF5iBivFD6LL1bNcgOawG/5s77Fl9jsn8UfRZ3aWsyVPci4Fw58w1zzvF+BEAmRW+H4eU4BD1N9XArWLTXzez8bPoMGud1aR0pmfUcZm0Edl5HSMac1bawDKltG6AK01cXV570JQZIwopVrRdmTRc/WFpjq23r0KMHwOuoNBx/fstlXxzo0LsZv4M2NY9EWuGFGqOsP33M+5H+GnBam7egmrpz4Wo7G9YpEn1o3/g/xLYxrr61v8TDX4wKbYQX370D/xfQp91FKz8ZiOvcsEW73e+xEbNvw8VwrK/Z6nYy7sJy6yD/0v8Fb/fhhZfgbjT5GZtlbIFQJ0vsbf9b0Tb4R1J5XHwN1GppmC7d4bcbrsT4zvA5SIYfm81U7Rxjt0XbNhqpElsfn4S+Gc/sa1UX51xg2NTPV1YS34buHRijfmTANEUy+ZHq92KN68n9Gn+3bow/2a0sRlhnZIWiOjJKYiltGtOjB9GCVvc8t2UyLXVKv0169GKufw3aLNuYFJ1mpPmQGwg3PziTVr/HqzdUMaiFaeE/z2sQpPvJ1J3mp3K3/+X+94ZRjLTSqVK7WScc4sRI0aMGDFixIgRI0aMGDFixIgRI0aMGDFixIjxt+K/M5su8xVsPMMAAAAASUVORK5CYII=;" vertex="1" parent="1">
          <mxGeometry x="648.8299999999999" y="993.99" width="122.34" height="56.01" as="geometry" />
        </mxCell>
        <mxCell id="1wy1hQolOM4I4YxT3BYF-19" value="" style="shape=image;verticalLabelPosition=bottom;labelBackgroundColor=default;verticalAlign=top;aspect=fixed;imageAspect=0;image=data:image/png,iVBORw0KGgoAAAANSUhEUgAAAYUAAACCCAMAAACejyR2AAAA9lBMVEX///9jZGakHhHYLCBgYWOhHRBYWVutIRVdXmB6DADX19iEhYZ6enyioqRbXF5+f4GiFACxTEafAADHyMjUKx/VAADNKR3YKBtUVVi5XFXXJhi7JBjWGAC/JRnXIhOpHxL29va6uruzIhXe3t9qa22xsbLXHgydnp/Nzc6Njo/icWveU0v99PT77Ot9DQDvtLHt7e3lg37sqKX1z83cRTzyw8HXqabeXFXhaGH219bwvLrok4/lfnndUEj55OL21NK8aGKrNi3Rm5froJ3aPDHcQDaTFQxuBQDet7Xrop/NjonRgXzEXVbDT0iuS0WuEACuQDfToZ9f8DDDAAASiklEQVR4nO1daUPaShcGjDFlCciaixGC7CoFV9xtr+1ta9+79P//mTcLIbOcMzMIaNU8n+4NySSeZ846Z6aJRIwYMWLEiLEGHJ487F8cTPevr0Yv/SnvFXfHU9vuNer1eqNnV24f7l76g94fRscHFbu+EaHWq9weH770Z70rXF3YFAUB6ra9f/LSn/ZecHlUsxscBQEadvk6tkxrx+HxV7tRQzgILJM9vXrpr3zbOHMt0YwCARN1u3d0+dKf+lZxd92ILFHtttJjiKgT/9+rnI5f+nvfIq4OKLE3bhIPG4R7qNuVgylJS82u3MQKsVJcHnExUcUV8cl+YKDc4OjgeJQ4ZZSjUfkax66rwuHxaYWPieq3s9/sgAKXkwp3k6sQbyZ2dQalgcNebJdK7ed4eTjfOVTOghvux7PqxQUYvjYqX368hfJG39JNXc9R19IdyzStTnrNrx49fAHUYDbPy8y9vCqECmFfvHqFyJpJD3qGuDawNO+aZg3W+WY3LmXjoEi0vcpX2vle95BbfYV45clcPyDBpaE7v+YYs2ua4azrvXfXG0CRgpAqGwDtQ0UNgjV7eraub107HD0Zwphf7IbMJPXWWt56OD7A1cBNym4gC3N4zOcQ9HMbr1Uh0hEL1twbZ7TwmjZcwzsvjxqCad3Yx+e0q0CoHwkU4uBVJnOliAV97ouzEQsZ0cNPweH4FK3V+TP65nh8dnmH5gH3N4KHPYVovMLqxjOzgMalhBx7tode+Xb/+uGYfPju8uz4+mb6Rfy861ReXXXjOVk4/FEW2RMGtXqj16tcB49eX3y1Kz45DYGLnj/62pI5kIXILxir8wtnF5BvrdXqLmqoflR8f3tZQard5d2tj80y8IMbZT28nmQOZKG18hhp9FBj1aDWcKd2vXx6MJ0enJbr3jwHJF2feo/fwCpU3WlubX388O2vXeBHN+O4eC2xK8hClC9ozipecjVl1cAV+unR+JKYraPL8fUpkBJUrlxTZsNq4HLgsfDhw7ePzSpwi+uqX0fsCrKw0tz5jo9LG5WDMWguRuMpG0DVNg4TxzwL1Z2Ag4AFD3/tADxs9CqvIXaFWUikO7pp6svXkdz0rMJVHuwLQSx5ecHUi3rXia+MqQrVgGLhw4ePKVghasf4634PICy4PLRaS3MAqIFHgmRyXjEzv/eD5rG6t0UiYgFTiJp98JsvQ6AsLI/DIxsqwNlSl3nC0oCpAc8CohD20Wr/tFVjfSyMvoBF0Ma+/FEkJPLUgKGAZ8F11X9xoWsQaf2+WB8L+3Al2lYw0mMoJnL1AOCAY+EbZJTqf6z0T1s51sfCAZzkNm7kjx5husDbI5qFb3AKVy68Wxb+RkoNtrTYdgerQgDOKH0k1ADK3jY2djffLwv/7MFirDXuxQ9eCnvzOIX4GKrBFqQGLm3NzdT7ZWG7kIKnZq1yJAgcD48qkqLrhh+sNmkWEDXYqG5tplKKLLRz+WyfFkK7lRvms/ncBLh9Usplskkt2cn0Fwnq061+vpNMdrLD7rznAmMh3c9m+1gThjPoDrMdTevk+y20UcNlYROsK3gJLbiY5uLkhk/yQLgKEbGAqcGMA0UWupahaYaVn18YDE3LdK95V7vMze1+0v/NL/MYpq5nSo7CO0pDXQ8ec58ydCvb8vlFWBgGXwRVVJ1W1tINI3y/pSFkuSykXB7gOdqwe/vHJ5RKHJ4c7zeEK2l1WkmqO01PIT5iarCx2ww4UGOha83KyNng/1tJ3ZjLJmlRZc1SxyJ+C0puuglqDCm5rqFrzFOmNWxjLAxnV/U+N1JON5mRDCsLlZt8FlweUrvwRG3YdqV2e7F/42L/4rZWsdE1uFq9Z1fs8nTKVzL2kNE3yjupkAMlFibWXA6ewEtJRmB6dOugwwpzJgg95wje0DVM8Clr6AwgFtrzL7KYed7S2TkQzIMsrw8zFlweNvdgw+TLt+GjDvsC92eXq8bpxfX4fpRI3Mo9xgzVvc2IAyUWomq+lk04GYuVsx7ONGfI/TaHmUTLn+2Ojj1laMNoxIiF/lzUBtUs5uSxkTSr72AseERsoTxg9DR6rvzL05vjs/ka9LUogqU42KI4UGIhR0wvp8PPNXNmktpJaB5GcsjBw3dh9Qkfi/4zYiEPr3hOgI+bw9CYaUCyIDBMnPj96W+70//qng6l7rHmPAaRO3gqC1lAYjMWSkJpJpnuujn6qCJwz0vWnZ2O+AOYaUCzIDZMM3jy3/CnP/SXfFGxR9W9FMfBwixAf6flu96WBfxEI/TuJDKgR3gSCxmRKvoDUOEcy4IgYgrV4ObsHs8kjhRCWM4UPY0FSLYZRRLcW/Ps2AuQIGOhJVcqqp8SYMEzTEKFELQSAX3zLABTFLLwaUkWDH/pN82S4CUKbvzPXDWZyFLdHCVlLDgKfOolGQueYRJ4akErkaSs4UamsBr4KMobxVAWDNPUrYxHwoQWgRv891uDtpvBGkzkaJFySJQABdI0zLqLWegyLLgfZxrMUCZpkhAWfIXYQT11zbavoSVppE4egolMGU0ofpeSgLCg6Z1+t1WaMGLxOSCy1XbOpMSjE/nbhFMgXe9k81mTS7wUWGAGSrof1+rm6ZFMMsE8L6JiEXvqXoXvvj4T2iPcFPmK8FmlDwNkQc8QeRBlkvUhkyh3ScNEutM8LWvTyM3GnLSyQMAlZKFNf0L4cU6LTEboeuBjEdWGlNhT1yvlH3R1Q6AJVJIMcFA8V+AAZEEzyODboSRQ4gZwMsQN1lwSJcopaHQEk+5wdl7IQou4XaOEXZqnMVqH/q77z8WmiAeBp2Z2cMKbqTwITZH7jsKjEgcQC0bWwW4wwdJZN7I92jxcpcJ7I8uWmnKs5xayEKXT/Cf0A8XSdO7bzlMCsyT11LfjmUKMMXskNkVeqrjx5UitL4xjgYn7HcK8s3WdEIQfDm+hVMEEqqMlhgYhC0ODuxShnXUDNqiWlEj8LAjlJPHUDV+EI9geSUxRaPNcNyNZVgJZ0DoO9TsRnVho22hEQ9jgS3p0A0yrGRpUWeCSkgS6I3R80EMzqUghZJ56CtkjmSki1KxeUWiEYVlgFTsJV3XYUeZcWYFcCBGzBjtEl6JByALxkSZSsOIwLgc9YRKBSTy1XQYWsHe3FmK28iD9WIYFtk2aEKclWkaYu4GgBkuOyhvsGagIWNk7mx2ldaWLaOmyLDHgspya5UBiijgrp9CPRLPAKXw3sgXCzQTzHWqGn0ATvtlAJy8df4pYoHIPTdeGJcnCUuKIrkPLDZNi9VvRHdAs/E/ysSwLOvvXRSLRxR3U4Y2+/SGlZuICyxDKIM7amIKqoZudofB0gFvWkAhrDPAc5iF1B6BO/btgNY+bt0T9xhykReiHcjKdRIJYQxOp0ADMuSAW+GKeppm6kWlhFEP9SFLDJKl+V2WRKUhjtbloTZXb5k0aDa+ChyPSmTZpx6A8L+KY9B7imiq8uqCZVqfLfrOPf0CPu4ynlnGAPLmn1I9EssCbcDaqV4BnuciVTJEFJ6ocEhbaWG3d6yMAXrFdgPtTyhLfis1osR6hWuSbwQVZ4CXG1jIV4BXVCOkiYSr3ctkqD1ShncEAePD6kfaQdjl5CsE+KOEA8SihK1qMBSAj6orXgEAWuqT90IAVuAhEBCrdaSta5zG4hNKrbKMztCoLdKiICV7GjG5GTFFk/RZjATDhkpU4CN4oHaVUz53gC7CQGBiCj9GZICDsR8ICUHkKsbWzW63u7rgUCO7EiSYSu8VYAI5geQILXnK3FhYSzlDQgmDSihz1IzWR9gu5p/YhpgoxejTHC1ok/tfFLZLfULcOi+QhneV6AyMaKG0g1trQzFiaU4uBmSIusVuaBbJ04C1XyjBrLs2u3jvP0O5rOrvUGY5A+gZqxRPPjGWeGqcAGxJQsaVZIPOqTl6KzGw9TTVSzSpHqgTSfa9hGGCCtKhcPxJmmGQlCYQDRL1A7VqaBSJrW+RoELHLn2OBrI3GZJDLaNz6NVlu5Vf/8cx4UcOEdfphhC7NAiUnRzpYiJIaeSXlCgaEdivPeonoR7gfCcuMpZ6aGkTZFK2KBdJmmIJZzWBCihc3SWRp+0kn80y6VPRKrP9j/UhYyU6aU8+eRyNTgT4ptMJIWCCSZ2y1BgJZ2eZ2IYRIK1e2Rd9P5NRG1GKA9iMt46mBrDqAkMKiQguAhAWynCcy8fio6Go1XaF78ilVA2KeRMHqo6gfCdnyJjFM2GPip5SawmQsUKJSP1mTLL5pSfixPt1QJmYhnRv2kUlAnHZIZG6fRP0XT/DUaKFCvPpZ/KR0CIaMBaoVSJiCUaBW/8HHugus/jsZy9AMvQNq1RBkIfGnsC1M4KkhsWJ3y1Y///2hJi4ZCwlSWHxb9kxKpVyOXnChSuJMh5OP7iKdMNngIzWoC8SJ+KZXlEY/hTTgnpozMQgHsjKfp3C22lmGUhao4jbf3hVIVDcMk94PSneFJZlZ7AwX6QqLyqlWhns/sbGBXR85+veJq83lnWb45CZWAJE487DGVLO/KBxlKGUhQeVGmsnuvU1MQolSLdsDukPS6pPiK/Hbs0QsEIxqOjVQop0nMxryA0ZHdkOeGePFvp29ZirV3NpZIEkmOYiGrVXkNMhZGNDrK2ayS8qh3Z+3C9OhLLP5xjBnjRNOOwdtOBSxQH2AoWfCDgynlKGqrGReOQ6PR1p2tRlUlYUaMRoLdcIgLBCdcTMe9Gyu1J5M2oNWv0Ntjibp4TZ+aLqe7HQ6BlyNU2bB32LdyfSHmY5JV7rJgz/J5tKl+sJ4yEwRx2r971Ww4HAb3tx4xYWlMzs56N71AbiLBCBAygK/9O+dIMCNRbaf0SfzyA2TQhtMAJkp2uQHqi5dwfDRVuwBYLr32DBICBELagNRZ+BO2U4YuWFS6QuT9uUBSrWzfB0pALexDRYDG8dygdATWUiItjrPb6ZOX93mp7bcMGE59QySxjKYx2pT5XwkJRZA68KJIclFkQvQIM7asvKB6ELJdgGSqFwhkJDI40DalwfYNJf5VdRUQ7SRBa4IJpCaUbW2JVjwBpK8nzkCd7sAV6BlCoEZpvLe4qYo4GCVLCQm4umo8Qe4+BCfGUCEUZFrhU9gaPObsKjXAycwwAJVSSEQcS7G3LwUosBCVGqQVYm64IksoTixXuJJHuXBTLaiES0nfAI7jaTLbbCOKOywxjCobCMh6K6sL4yKmMri7QpIbk0YPwUWos2Dlqxw7SbJ8LZc0+ASagLcYT8zEZs5J0rtiAAHPZln0offbxp8eSlcX8BaeMUlIHd6N3eq1XK5WpUwBq9+0vqmckpVeLqCiVTqSLSH3GKvZmANu8QrOmymZuhJ/2yryYwgzSAmc3hmAG/kJrkkMBL0+miVB8mN5VtLNhUakmBTxPgetRPbdPR8NB6TVsbQg+PcghPbsjmVs/PSbpLtHbQWPGUlh6EBa7uKomlMzbofnNgGehp/pNl5ctRINOhOGKwm+sQ2mJAmkF6+Mq52euEkl8n3VWQZwEm3csNMPp8Z5lppR/mxSak7e4re/tEa5oesRWn383n09MLEZNDtQyORYFY8EcP0pDYY0Yighv3uJ3muD9y6MxaCyjw1wgGoXYi3iVmQi25xw4SbInicmAUl+S3UFwbV6zaEFSaVJoy3CbwTBlEIRcMEJ8ni45E+v7QwXgyf8DXnJTw1UhURMlh8t/YokRgVBEv/TzNMyFOS45GU2pHeLEbb4gNh4PVm3FPDHEiPR3p0XloQL4zzguRgHjinBuWK1q0FHDSLhcff/N9Feg44f6bEB4ZtbsHFPtbGwDunxKaoUNz8M+YgwPfPkg49pNhH+NtN0HhJTFGh+N+79gcsTv4oPuXEsPLunl/PS4ENSZJEr1D8Q+VoqneFu8ei8AQ9tDOs7ELJYlFoFos/X8U/3/ncODyXGaYFOsPEbRhuRBC7AxQyw6TYGSZpwygUt2N3IMTINUxP8dQEJO4gNkVK+P7fMoZJvF+kUCzEpkgRdz/lnhrhQJIdxJHpIjj8JU0hgIhJzEGx+El+rHwMGvIUgjZM4kaBQrH5CP7T6TEkGD02JbWN5m41pECyhTM2RUvg+7bMU6eaW1tN4elIsSlaHpcyTy2BVzONTdHykObUAhSKn8+dl/4D3gruP0lyahjF4h8KOzdjKGP0WFhQIZrF4mOcJK8cMk9NoVBMxaZoPZDm1BEHcWS6TpxvyhUijkzXD1lO7bqDODJ9Bty5nhoxTM1i81dcM30uwClE03XJL/1l7wuuYWJ4KBQ3Yw6eHXefiGW5QjEOi14Io/Pt4gz/xRnaC+Lw/vuvX99PYo8cI0aMGDFiLI//A3CnDN/7VBRTAAAAAElFTkSuQmCC;" vertex="1" parent="1">
          <mxGeometry x="650.15" y="1050" width="119.69" height="40" as="geometry" />
        </mxCell>
        <mxCell id="1wy1hQolOM4I4YxT3BYF-20" value="" style="shape=image;verticalLabelPosition=bottom;labelBackgroundColor=default;verticalAlign=top;aspect=fixed;imageAspect=0;image=data:image/png,iVBORw0KGgoAAAANSUhEUgAAASwAAACoCAMAAABt9SM9AAABj1BMVEX///8AAADSpBr//v////3/3Hb///xquCf9//9ruChruSZqtypqtiZouSj//vxouCleswBrtCzi69n/23nx8fHD17BouiP/53v/3HP/4HnRpRjFxcVjuBr4+Pj/+/80Nz1ZtQCqqqpbW1vg4OBjuRajzJHx9eyMjIwmIRTGrF8AAAhGRkau0J/U1NTo8+TLy8vL48ipqamHv2a1tbX/6H/oy24aFQAAABgdHR3bqhjn5+dvb2/S5MzDnBhwtj0wMDCfzYyYmJjo+eP3++zd6t6+3bSYxnt6vVqLuXtyt0a23auFul6byXGFeklJQCCWiGzP68a917mum07nzX3D1L/Uu2e1oXZnWzQqKir/5Yk4MCAjHAA3LAgyJhCczn4rLBWgjE4YIAqaxI/HrVt+b0WQwV1TU1M9OCNaVDAaHRQmKDm1zaRMQQWVfC9eTwlJNQyhhSNARiWAahWGeztxazmxmkaZdhB0WRiMf1VVUDiYhlRbUB/boRrAoDx3WgBAQks+PABsXULctkHQuX58Zh50z8IYAAAXUklEQVR4nO1cjV8bR5KdYYbp+WR6BDQIt7AMkogxlrEwjmULWbZBWgH2GbIk2Y3jsEmI48TnsE7Om2R3ndu9/OH3qkcCmY+ED93tL3f9cAQ9X9I8VVW/qq6JYWhoaGhoaGhoaGhoaGhoaGhoaGhoaGhoaGhoaGhoaGhoaGhoaGhoaGhoaGhoaGhoaGhoaGhoaGhoaGj8f4G996Lxq7Bd13H+1R/itwKLXrRlnQwPKuGcoU3rZFiTIZ/XlnUy5AMmG//qD/FbwXpe8Pl/9Yf4rcCZa8zrAH9CuP/Tb3Dv9rG7Fqb7+Ua29Utfug2N9Pa92q5lqzPw27Jsda7bPcpy1aRn09xnp4e69tCQ4wy5ju3SwUOdN+tchN4gvQZOwd+04dS3MG2aM0fvuXrXvHfqy/0CSC86mdE9bPS8jj4uGY51gCxwVCqXyznLdhzHtZzyfcPBIQ/Kt5dLrqGOHrLdctmiC5fLQ47rlO67REap7Di2becy98sgM6WXeJ0sLS8v452wr0S/T3sL183n5t2jLOiead69cyZWjsGQZay0ZV5ySf+kLNALDWnky2aJjKAHjvW4FXDO65UV2uX+juc3bPvBXJ3nedheVQw4bpPzOcNabXPecowa42sl15njfN0xyo0EZ7dx3fRqxgO8Pc5NKmXDWMnzdu7UZN15+Mg0zWuHtk9h67+ZZ6PlaLi5Co/C2PciP4riOGAxExGGfuxHQiRS/r7nq4aPuBUe+4kIRFyQRdeYzycRLy2HMgoCT0Q8rMHxjBr3gvzyGmdxyGtGIoN80SjxIOHL81yKAOfL8DFdzTYy9YKI/TjAuRtG4vt4PS3e3fwRtJgHbYu4uvJeX8kyGjLyAz+IAuZFIb0y1hl6GEYsLO9bFnho8sCPYXV+6AtYzzwNa7EIReizIAxEOI+AvsIjJnZkEIskXzPCyJNFIwPqRBFMB2ArjJi/TC6dwWkevhOBTeHvBR1y6jswtxbNWXjc21svEYHvLx7i8DzI8BgfPvCUMeEDx57AH4yGMBWYUKG5f7ADS4pDWRmdX63ARIgsCTMJBeOt9Z02iANbcKcNHrPI92IcUnENGKogsuIwKASFsJ1wMiX5FF6cSwROkcl6sQU7DhM/lqcma8TcGvuAmFmYvn59Zkrh3vULH2LLxT/0kSxYSj1i5Bb48QMWgq44UF4WpMOAJXCM7ozoGA0Rhil7pWK7mSPLghfJnTLtXUngoXINsUeC9STm7bllRDxcuwCyJDw8kcWSMZmpgMqIl8msQ3C9Qo4+2eAMxEVnISub/aOpcPOjJ3h98vFHajT7XnbRvNo3snCz4Ap3FsQMbhR7iFn7Q8/zGLioG/vyoSkjudGJYvRK5wsYSTpehs1EfBmWFQQMtlNS+iD0feWGgSDileyoRx6Dqs+FIpDicefac4h0wVks673xwbHPP/luc3Exm83CyLayY9nFz7Z/2MoODpsL5yWpCztXD/EBgyQKwVTAGAsRsYLEwzAIoog2J4KvdKWYZTRFnCQZda4qvYAsP67nUvocY5Un5HLkhn64Y9gkKowkJgoy0ktEyxhSvG8UQg/EbeThePtuXpGJf0ayhscGb2Szg9nh7JZ5c3hwfHw4mx0bzg4OmpfOzZK6W9hLseBFsYDzwS98hFqPFThZhweiBP6jSRG+2J0PHWNOJiySlRrJRxeEEVmFlU65yjVydRHLClmW58uy47q0XTBlWTLw5Vwq552SDBlOa0g/4CW7e/EaF9FJyJq+OvIWWbCg8eHxwfGsIuiTz8ERhvRvMGte7w9ZtlGWMVwO7kEm5OHPKJyrbYQJTYs0xF4PewuNLll2KSxgr4jC5uNJA7KTZkOZ2b/oTiSCBDEL/tQ0htJtiFmpZTHoCAUXZMVw5wrmhrpjdTZaroTH/gJZI9euX7q0MHId4eiLC71kDQIwqg/eeb49lt28PJgCVIGsPlnWkLGObzbG/O4j3gYMwUp9r/MQE4gpPjEYqb1yuXM/CEsJFzBDqKx2DWyArCgq7V+0KCAjjFHMfIWNrvNKRDUiK/bfJmvFWJMMnrlHliEZO146TE+ZvbjSTQhz5uUsUZP94/Z49k/vKatS7GWzw+P9illk9kmchBBHmAmh2BG+5KhtOzmSEgLjsLPX81sdfuFWJShxCQpjP/8piM3j4B6yPvURxYmsgGe6ZCV+allh0EsWU5aViLW9RNuBw3rHkjVjTl3IKdK6dHWNa3YbZI2PPdweG8w+vExMga7s4Gefg8S+SQer5TMCYlXMm7Wn+KiFURAC8RPL9doc9AOiGIwMurrWk+A6tWZbwtEEHyWyIt7rhlAddYhSz8tnuiTAEBVZUa9lIdRtwLIh5Vyny9UI948N8FN73ORuddnqGM3FzxHahweHh2FN325mlQdmt58/3Fwc7xtZDsIwlE0A0whVktH0ww5ZUVyHbyCJQQ6DvQhSbXc/6XGIrx2JyN9Sbhg29naVEthkBZYVhCCr418U2RVZYs+dSxTUVjBd7FsbLrtSgL0dTdZMj14amSHBad764lJ337PLMCryPlhW6pKbX1K4H8x+1o90x6aZi0UM4R3SinTnED56QGRZsCzcMKJ3OWTwQYR9L8bU1bUtF54KD5sreH49Nw9t5MsRKsggbzSKEFiY8jY467EsklyKrLjHsjyKWbU8MiJIB7w5LmtBfR0zG149kCePTE/vW8wCkp0vFzEZjo3d+GBxjDD8/MaNMQpb337VD7Jsoyh9kBWyOOar2OJMtgTLp5aFiFwiOXAfs2FMUyMyFhKYTqlYXKayFU5fhkqvW/M8jgJRwUzmwvZqSBkjWQZZkcczbmc2DFM35Oyt2TACWQaCH2WDtospcRKCNzjGsr6Y+oV7mUa+kx0eHtu+9c4fzXdS3PrkExM29uVxla7TkWVlkP5HoRdCSSlZWGpBEHRjViCTZarNrMBSIvUDJYBxI+/LRlmZTAM3uqPcMInk2nzOskoN2IvKJUdB2j5Zge+llhUcIuvrAkKfbJadSacGSUqXOoqs28cnLSMX7nxlfp/NwgcXFxe3ni0Sss+26BWeeLMfk6FrrAsqEzAqCZRhKLm2iLxugIdKjUTGsBxjDToBMSuKgjyV5Xak9CRvNRsNmKHA7c7zMAhhTvl6ux3KOPLCIOeQKEXM6s6GzCNBkCEF0SHLVmRtuI67VogjJni9nUiZwFYZnPgwFo6LPNfumOaLf385exNxfRxT4PY2/R6/8WyRJsjxsUXz+IrzyWHXuMcw18G2ZINC9jo0Tsw6ZOHuAxFOPjCsGgeljEo3YsdyrExdRgljUkgBodSm3BKONEpK1RehBwNM7uNqG1IkIKszJ8QJvUcNeWC+E+CNMiQ+X6HSaBuKK/JESAWyDehWOXrEp525ctQ9jFy/ZX6zO1Gt7kLDD9MkOHYrqzCm4jzC/M0v+sCVYcAyVBEm9ngJ/rWRp2GHLGIHnggS7ckWbgBiHnvhQ47hzgXcFxgKwVslKHjJknzpfpsjYQpYxNfKVP2swTn5SFdAJSKEvZRIlHbIsp2270F4IFF016WMMCnLsJ5ZkdhaO+LDzhwReUZmMCO+rg4MTAxMwA+VDN3889blzy4Dm39ON/RBv9tURGGJynASJaHtOpgCR7Ibs6iSxcsOJj3JAhrCZeuTDoJ47vfrbVVWhvSyVIkmLBuTG+2Q87A5ryZLnMUxadgdsh4nvPLAMjYS+WlXrBvzCW9iEiTbWy7WceraqAUnx8VyQychy5pRNZiXIGtgovrqXZLrw9nLpvkt8OOX5ncIYtkbW2bu3GQN2VQbQeYceF6gggRMAXl0HHd1lirRUNprLXM6iNJsdWSnOOOUOreNRDqWVMyynFyuZ2nD6VH1hv2ApJnx4EFvhVotAJWbjbI6nFY0nhYCP14/asHioBva182bu0tPwNYSyHr96pX5/ebmJrLD4e8eLd64sf18a2x8eHP7Px5duXT9vPWsIciGwFcKyw9V0C1iaoSe2o9ZVKIhJTo0GVBOzZIAUV+W1OKNRaUXOJuryIpTshzbde3Ofdo07BGxMEEX50Ag7FuNo3RbW8KmVsojuVxppV1AXoRs4AjLWrj11vDaRdN8WZ0Y+HnWfA2ydl+9fmlub26Cq/Hs1rNvHz0kMxvf3HxoLpyfLKcshUe2E1OgIRtoixi2kwZ4OwcVinjte1EZntRmPv7yEOejdCpQN28ZaSvR41DEVPKkZcShbpACC9ZQD1kUmiwcPtSTBgy5tITIfQT2PCUDslCAu9Oa0BELh9O9SYt9x3z5l9nZpepEdemjJ+BsaXf3tfn91hZp+OzYj7PvLI6Bt8GtrUdfXL127dzT4deYpEGIKsIkUJsWlWI8L95Ld1SJJi02rBXS0iCVnJPcwdXl+Txy7eWj3uNEqEmqnwqID2gOP8x/fcxxt/arUhdMc7daXXr58cQEwtVflgYmXr148fKl+cPnlBsuPn+YXXz2kMpbnz+fvQNcOOaSJ0ZFYPKiH+gsRZZgCO9MkTVklELBVMVG+VdReDiQVspC1psyp4C0FWHpiLc4GeyR1VZ3vZInlcxxK6z39oTWDHGFCbC6u4TXCWJsoFodmPjmhzEi6zLE/OCNbbKybJ+qMzuhn9D6FzJDIsswMBcmNBQN+BD0d7pXWVbbT7AP3z7MkD8+dKn5tebZDUsF9lJtrvHpp8XVGr41+4iARRhRNQfLyF0xX8y+gUURRwMT6r8J9W/J/P7GIFVLx4dJuYO3R1PdStn5sC4gRykWMYRyMp8KVYtpi/zd8moiIsT+SPiKxzqSHc+PInVw+WBA+d9q6Ju5RaFw2ry5VH39pyrRpOjqwa75/lin7Dc4jkzxu34tr25wH4KblBXmH2qdKsaC1mM8lkQFqG/h+9gr1rBnMqQSTUAHU5Xh4Hdl9+Xbs5xfa0nKUS39mvmCnA5yAU54gKuB6mtze2y4U1EeH/u2X1U/u0TldgQpilqCFhEySJg9iKs4DpCz4B+EAyvMQXXe5jSMSGzReoPjpvXS/WudqOvFgtZwjnGxX+vkSbFg3l4wX1QnUpuqvvv6IFmQpub7N8iqkOiM/XhE78PZ4EBhY7bzqJ4VRm3ypTVJQ5+mQUquwU7sC1rhKkpVogkZg4zNUXNCxnBPRNDb70hK9lwfeupD8021S8ySuXTQDRG4oE3/gJA1mM1+1zeukL3ZdcQlH1ohCGN+33FtmBaGUBPQqoosX/CvDSpG+GmJBpaFZM4x1qk/5tS3ba3urLrnI+uC+U21S9DErnkoZtHUuGteeQ8aa/FZ/9ahKdWo8YQhfQ2RJIsmZKbRoA4Pag3xGCMKE9kiF1vhaYnG83zRgl5c5j4TpVNb1lw+4qfv+OjFVfOH2VfVTlyvfvvx4QivLO7m7PfZTfNiPwozPahIapchHpifocDTyKt4pbS6SCLRxlRo5eqxzzwqejFfFahq+cDjpVM3PlYiT+yc5+OOIL/50dydUAY0Uf3ri+rAUXRNDLykBDvXH9GwhzKjmkwI+eTJlkNtekVOdaWYkUAVfC1nIf1rSHAH60vLXi6tQAdMnp6sFlRt+xyfNnf3xcRA9QOwtUSY+AahvnqEaZFYffT+q4vnLzb0wjGawk8XoYMg30TuBtesc8HihPo36qsWBaZ5HkWdppqYj5Bbzss4UblgehGC5ex9jXa6ju/sJYaWi6QQCeaOsizHPWsv7pQ58beJ6t8/NG+m7TGz5pMnb95AP1SrqT7tWhmZ3t+qJtiy+2dcjlUKE2IrIKfjq+rGJ2tPW6Hk9fVRR01eVE2lHhsq/qlKDllW5Ie5TKMVthq1tBGZin3FSlKv0FqGimZInDPFSogtGSpQDDnL9YT59ZUjKwonwYyJFPDvj8yLd7pLhlPXZ+78hN//+WZXZTsHZsWP7hr99EQHsTuJYh85LEjjDbo03IwEkUvWAgpW/Jgmx7SpJqH7JMsKEtHkoQjA6rqjuMk1uQyh+CV/+sAi0qn1UgrIXsGLjjXkrnPVTSHzjbN91guUDn5n3pnu9PMRWeoebi/MgLEnr5be8smlvy5NvJjqY+c9GHFaMo7TPhk/4u0MzZKOqkNRbQoUyFiEjPYi8KcP3yjLCgMRIX2GDpNPSaA6bQk/FSQxZPuBC6cr4coeyMOZvOK6DvkxWI9E60yf9bb5qvrPR0iLaR5aSMm6leuqvdzVmYum+Zdd+KlyQsoU/zZQvdnXNmUqj1IPjeqTEYkMi7RUaCF4UTab+5qaPPf3rhk9lgUKmhWe+GFIZYIm8m7ZftoUSKAwC4DtZiFhot5sgp6EFMMq94MEZhYezsNPgp8gsP4x21UD11K23hJSIwtTpvlmqVrdi1yYFPvMVlOoHjaR+DH1OvLKaDk3aVm50nwjyQfUtpXuTQQvqXhJltWpL8OLVV+ok+Eilm1MP7SY5kdlbMknvqiA3HICu4xGHCPXwtXaGftMD1sgYEE17JNz++6eH/Ygd2nKvAl/VHQt/fx6aakv66tduLQgFQdpFw1+YEMI7u12qy7z0ldrFNhL3VsiWk+N3larOYUKeZ/VQl6ZUEUa8ShDYT4jQQ54bFBHSZlcOUPmN4fTdqI4bO+tYJwCQ1Cjr6ufvfvWgxKq92hhZHq/pU11zd2+d8t8uaSmRwr5S31qzeqiKAV10SDAUIHPZz5BRF4cUL6DPR6UO/b6HbGgYpZHS8l0ciGIeMmoCE+0VTrttnGNNcNuYUvadZWrI6yvG9Tj5vtn0lmO9eHLavX7A6s09zph/pCnXZsyP3rdqXb1m61SEqddNKoBkEo0NIxD4ft7Q+wrdFeJiSx6DkCF1pVCEvByrg4Dq6Sxdgcyo244pEbW08moHXoqqu9ELDybKJ2BwvrnVwc96mqn7ejwkzm3Z2bNVwMqeFV3zXPXlHuxQa3rLO6kyjHVmdNhAKZgbgE9QODVu4sIiqyA15TmXJUsypecOqa6Vlp+2YkEqxs58Cyaqcu1MZemZPnsTGRNm7sDE/91OC/O3blCOLye6CDaf0XBXpWezWvT9MmOWgQ5NVynjaBE/VfESZiWaNLVehrSD3Ur14weslT3CGFOJgncsEVkpWK+DRtdM9w6ox4ttWjWTryIckJY1tnI+glJYPX9066VLlxUdE1UX5vvmleuO30RqC7kQ+R7nSIMFbf2SjSB6oPA0JM7RjehAVmFKJAV+ttqC4gFinuIbyUiqxyGolC0MckylqRbfJ8J8uEWdP9ZyLpg0orXqclC8PpJxfqBpX8uvf64P8Ut5CUV3GtqQkyRRR0L6hcFLAhQFlM7Ta8bhoxThH8KxSWb9DyLH6SPQDcxq9KSbY062j6lLdQzGtKK0I6Iz0TW1Mev3rx584/TkkXN9teuEF1QqtXqz/2KXeUoos5SzIbpszvMS4ceU8/uREHvs+D0vBe1VvJWs8Xo2RxazW4LPy6sj47uCMGiNcOyjHaBmq5GR1tCSTGDWAtif73ZOqpF5pfwxUWFuyO/fuhhgK6fVZFi6ZvnZzn/CBS5YNRhFaZuSAvVjBFrVO2ChyU9DwCmJZpIxpLJyPN4gzaWyXmZ5LRY5t+n8FYm3SYl9yMm1AoRtZfARwXL9yXUnhi0zp+iPzUbF0FHJgw/VICgZYuAMusoUarBl/VyT3QkmQmN0czHIvDi/LqLLZZxvy6RAECQFnCwWqe5X89T2R4O2y6pSJ9BOgWBK89T0zo98C3fHlHoU+UUF8w0+VuQ+6/t1dyBg5/m+aoxSk+jtlZcVWNwDGe1RYfXuwc71oOVNs9jy0a3JpNR49ahFe3fHGxjMnM0ygdWUcmHRtRTzKWMQ0UK1R+inmbKlHqmZ9VBlKGV6s5GpzP+rf8PC2zbPj5nG3IPKhTHVp1VbjdZpEqFlV5hr8vIpn5mVz2AP9S9DiXi7m+eLA0NDQ0NDQ0NDQ0NDQ0NDQ0NDQ0NDQ0NDQ0NDQ0NDQ0NDQ0NDQ0NDQ0NDQ0NDQ0NDQ0NDQ0NDQ0NDQ0NDQ2N/2v4b/hdxfmcOJ5lAAAAAElFTkSuQmCC;" vertex="1" parent="1">
          <mxGeometry x="300" y="900" width="300" height="168" as="geometry" />
        </mxCell>
      </root>
    </mxGraphModel>
  </diagram>
</mxfile>
